<svg width="30" height="30" viewBox="0 0 30 30" fill="none" xmlns="http://www.w3.org/2000/svg">
<path d="M23.9277 10.9036H21.2771V9.93976C23.4458 9.63855 25.1325 7.77109 25.1325 5.54217C25.1325 3.07229 23.1446 1.08434 20.6747 1.08434C19.4096 1.08434 18.2048 1.62651 17.3614 2.59036C16.5783 2.16867 15.6747 2.04819 14.7711 2.3494C13.747 0.903614 12.0602 0 10.253 0C8.50602 0 6.87952 0.843373 5.79518 2.22892C5.61446 2.22892 5.49398 2.16868 5.31325 2.16868C3.44578 2.16868 2 3.6747 2 5.48193C2 7.10843 3.20482 8.49398 4.71084 8.73494V26.6867C4.71084 28.5542 6.21687 30 8.0241 30H17.8434C19.7108 30 21.1566 28.494 21.1566 26.6867V20.7831H23.8072C25.3735 20.7831 26.5783 19.5181 26.5783 18.012V13.6145C26.6988 12.1687 25.4337 10.9036 23.9277 10.9036ZM21.2771 13.7349H22.9639C23.2651 13.7349 23.4458 13.9759 23.4458 14.2169V17.4699C23.4458 17.7711 23.2048 17.9518 22.9639 17.9518H21.2771V13.7349ZM5.9759 26.2048V8.9759L6.03615 9.03614C6.09639 9.15663 6.21687 9.21687 6.27711 9.33735L6.33735 9.39759C6.33735 9.39759 6.39759 9.39759 6.39759 9.45783C6.45783 9.51807 6.57831 9.63855 6.63855 9.6988C6.6988 9.6988 6.6988 9.75904 6.75904 9.75904C6.75904 9.75904 6.81928 9.75904 6.81928 9.81928C6.93976 9.87952 7 10 7.12048 10.0602C7.18072 10.0602 7.18072 10.1205 7.24096 10.1205C7.36145 10.241 7.54217 10.3012 7.66265 10.4217C7.66265 10.4217 7.72289 10.4217 7.72289 10.4819C7.84337 10.5422 7.96386 10.6024 8.08434 10.6627C8.14458 10.6627 8.20482 10.7229 8.20482 10.7229C8.3253 10.7831 8.44578 10.8434 8.56627 10.8434C8.62651 10.8434 8.68675 10.9036 8.74699 10.9036C8.80723 10.9036 8.86747 10.9639 8.92771 10.9639V21.4458C8.92771 22.5301 9.77109 23.3735 10.8554 23.3735C11.9398 23.3735 12.7831 22.5301 12.7831 21.4458V19.2771C13.0241 19.3976 13.2651 19.4578 13.5663 19.4578C14.6506 19.4578 15.494 18.6145 15.494 17.5301V8.85542C15.5542 8.85542 15.5542 8.85542 15.6145 8.85542C15.6747 8.85542 15.7952 8.85542 15.8554 8.85542C15.9157 8.85542 15.9759 8.85542 16.0361 8.85542C16.1566 8.85542 16.2771 8.85542 16.3976 8.79518C16.4578 8.79518 16.5181 8.79518 16.5181 8.73494C16.6386 8.73494 16.6988 8.6747 16.8193 8.6747C16.8795 8.6747 16.8795 8.6747 16.9398 8.61446C17.0602 8.55422 17.1807 8.49398 17.3012 8.43374C17.4217 8.55422 17.4819 8.6747 17.6024 8.73494C17.6627 8.79518 17.6627 8.79518 17.7229 8.85542C17.7831 8.91566 17.9036 8.9759 17.9639 9.03614C18.0241 9.09639 18.0241 9.09639 18.0843 9.15663C18.1446 9.21687 18.2651 9.27711 18.3253 9.33735C18.3855 9.33735 18.4458 9.39759 18.4458 9.39759C18.506 9.45783 18.6265 9.45783 18.6867 9.51807C18.747 9.51807 18.747 9.57831 18.8072 9.57831C18.9277 9.63855 19.0482 9.63855 19.1084 9.6988C19.1084 9.6988 19.1687 9.6988 19.1687 9.75904C19.2892 9.81928 19.4699 9.81928 19.5904 9.87952C19.6506 9.87952 19.6506 9.87952 19.7108 9.87952C19.7711 9.87952 19.8916 9.93976 19.9518 9.93976V11.506V13.1325V18.6145V20.241V26.1446H5.9759V26.2048ZM3.20482 5.54217C3.20482 4.33735 4.16867 3.43373 5.31325 3.43373C5.49398 3.43373 5.73494 3.43374 5.91566 3.49398C6.15663 3.55422 6.45783 3.49398 6.57831 3.25301C7.36145 1.98795 8.74699 1.26506 10.253 1.26506C11.8193 1.26506 13.2048 2.10843 13.988 3.43373C14.1687 3.73494 14.4699 3.79518 14.7711 3.6747C15.494 3.31325 16.4578 3.43374 17.0602 3.91566C17.1807 4.03614 17.3614 4.09639 17.5422 4.03614C17.7229 4.03614 17.8434 3.91566 17.9639 3.79518C18.5663 2.89157 19.5904 2.3494 20.6747 2.3494C22.4819 2.3494 23.9277 3.79518 23.9277 5.60241C23.9277 7.40964 22.4819 8.85542 20.6747 8.85542C19.5904 8.85542 18.5663 8.31325 17.9639 7.40964C17.8434 7.28916 17.7229 7.16867 17.5422 7.16867C17.3614 7.16867 17.1807 7.16868 17.0602 7.28916C16.5181 7.77108 15.7349 7.89157 15.0723 7.6506C15.012 7.6506 14.9518 7.59036 14.8313 7.6506C14.8313 7.6506 14.8313 7.6506 14.7711 7.6506C14.7108 7.6506 14.6506 7.6506 14.5904 7.71084C14.5904 7.71084 14.5904 7.71084 14.5301 7.71084C14.5301 7.71084 14.4699 7.71084 14.4699 7.77108C14.4096 7.77108 14.4096 7.83133 14.4096 7.83133C14.3494 7.77108 14.3494 7.83133 14.2892 7.89157C14.2892 7.95181 14.2892 8.01205 14.2892 8.07229V17.4699C14.2892 17.8916 13.988 18.1928 13.5663 18.1928C13.1446 18.1928 12.8434 17.8916 12.8434 17.4699V10.0602C12.8434 10 12.8434 9.93976 12.8434 9.87952C12.8434 9.87952 12.8434 9.87952 12.8434 9.81928C12.7229 9.51807 12.4217 9.33735 12.0602 9.45783C12 9.45783 12 9.51807 11.9398 9.51807C11.8795 9.51807 11.8795 9.57831 11.8193 9.57831C11.759 9.63855 11.759 9.6988 11.6988 9.75904C11.6988 9.81928 11.6386 9.87952 11.6386 10V21.3253C11.6386 21.747 11.3373 22.0482 10.9157 22.0482C10.494 22.0482 10.1928 21.747 10.1928 21.3253V10.4217C10.1928 10.3614 10.1928 10.3614 10.1928 10.3012C10.1928 10.241 10.1928 10.241 10.1928 10.241C10.1928 10.1807 10.1325 10.1807 10.1325 10.1205C10.1325 10.1205 10.1325 10.0602 10.0723 10.0602C10.012 10 10.012 10 9.95181 9.93976C9.89157 9.87952 9.83133 9.87952 9.77108 9.87952C9.6506 9.87952 9.53012 9.81928 9.3494 9.81928C9.28916 9.81928 9.28916 9.81928 9.22892 9.75904C9.04819 9.63856 8.92771 9.63855 8.86747 9.63855C8.80723 9.63855 8.68675 9.57831 8.62651 9.57831C8.56627 9.57831 8.50602 9.51807 8.44578 9.45783C8.38554 9.45783 8.3253 9.39759 8.26506 9.33735C8.20482 9.27711 8.14458 9.27711 8.08434 9.21687C8.0241 9.15663 7.96386 9.15663 7.90361 9.09639C7.84337 9.03615 7.78313 9.03614 7.72289 8.9759C7.66265 8.91566 7.60241 8.91566 7.54217 8.85542C7.48193 8.79518 7.42169 8.73494 7.36145 8.6747C7.3012 8.61446 7.30121 8.61446 7.24096 8.55422C7.12048 8.43374 7.06024 8.37349 6.93976 8.19277C6.81928 8.07229 6.75904 7.95181 6.69879 7.83133C6.63855 7.77108 6.63855 7.71084 6.57831 7.71084C6.57831 7.71084 6.57831 7.71084 6.51807 7.71084C6.45783 7.71084 6.45783 7.6506 6.39759 7.6506H6.33735C6.27711 7.6506 6.27711 7.6506 6.21687 7.6506C6.21687 7.6506 6.21687 7.6506 6.15663 7.6506C6.09639 7.6506 6.03614 7.6506 5.9759 7.6506C5.79518 7.71084 5.61446 7.71084 5.37349 7.71084C4.16868 7.6506 3.20482 6.68675 3.20482 5.54217ZM17.9036 28.9157H8.08434C7.12048 28.9157 6.33735 28.253 6.03615 27.4096H19.9518C19.7108 28.253 18.8675 28.9157 17.9036 28.9157ZM25.494 18.0723C25.494 18.9759 24.7711 19.6386 23.9277 19.6386H21.2771V19.2169H22.9639C23.9277 19.2169 24.6506 18.4337 24.6506 17.5301V14.2771C24.6506 13.3133 23.8675 12.5904 22.9639 12.5904H21.2771V12.1687H23.9277C24.8313 12.1687 25.494 12.8916 25.494 13.7349V18.0723Z" fill="white"/>
</svg>
