<svg width="30" height="30" viewBox="0 0 30 30" fill="none" xmlns="http://www.w3.org/2000/svg">
<path d="M6.65307 29.9965C6.38593 29.9965 6.1692 29.6928 6.1692 29.3184C6.1692 28.944 6.38593 28.6402 6.65307 28.6402H6.70095C6.96808 28.6402 7.18482 28.944 7.18482 29.3184C7.18482 29.6928 6.96808 29.9965 6.70095 29.9965H6.65307ZM10.2482 2.16461C10.1361 1.82553 10.2407 1.42113 10.4826 1.26394C10.7245 1.10675 11.0131 1.25334 11.1252 1.59241C11.6267 3.10056 11.2903 4.19373 10.9791 5.20918C10.7875 5.83258 10.6086 6.41537 10.7875 6.94871C10.9009 7.28601 10.7976 7.69042 10.5569 7.84937C10.3163 8.00831 10.0277 7.8635 9.91429 7.5262C9.54762 6.43836 9.80971 5.58711 10.0907 4.67411C10.32 3.92887 10.567 3.12355 10.2482 2.16461ZM7.73687 0.963749C7.62472 0.624677 7.72931 0.220277 7.97124 0.0630831C8.21317 -0.0941105 8.50172 0.0524872 8.61388 0.391558C9.25527 2.32178 8.81928 3.74168 8.41479 5.05899C8.14261 5.94551 7.88808 6.77556 8.16026 7.58612C8.27366 7.92342 8.17034 8.32783 7.92966 8.48678C7.68899 8.64572 7.40044 8.50091 7.28702 8.16361C6.82709 6.7985 7.16479 5.69829 7.52644 4.52211C7.84901 3.47312 8.19679 2.34288 7.73687 0.961859V0.963749ZM4.9143 2.65911C4.80215 2.32004 4.90674 1.91564 5.14867 1.75844C5.39061 1.60125 5.67915 1.74785 5.79131 2.08692C6.4327 4.01714 5.99671 5.43704 5.59222 6.75435C5.32005 7.64263 5.06551 8.47092 5.33769 9.28148C5.45109 9.61878 5.34777 10.0232 5.10709 10.1821C4.86642 10.3411 4.57787 10.1963 4.46445 9.85897C4.00452 8.49386 4.34222 7.39364 4.70387 6.21747C5.02645 5.16847 5.37296 4.03823 4.9143 2.65722V2.65911ZM23.1287 2.29884C23.3127 2.03041 23.6189 2.02158 23.8117 2.27942C24.0032 2.53725 24.0095 2.96638 23.8256 3.23659L21.851 6.12399C21.938 6.33768 22.001 6.56726 22.0375 6.8039C22.0577 6.93635 22.0703 7.07056 22.0753 7.20655L22.1434 7.20301C22.4899 7.19242 22.8389 7.30898 23.1489 7.55621L25.567 4.01892C25.751 3.75049 26.0571 3.74166 26.25 3.9995C26.4415 4.25733 26.4478 4.68646 26.2638 4.95668L23.8457 8.4922C24.0347 8.91781 24.133 9.40168 24.1393 9.88732C24.1494 10.5902 23.9692 11.3001 23.5975 11.8458C23.1628 12.4798 22.8024 13.0096 22.5592 13.5729C22.4495 13.8272 22.3588 14.0975 22.2895 14.4047C22.9889 15.1323 23.663 15.9288 24.2993 16.7906C24.9836 17.7159 25.63 18.7243 26.2248 19.8087C26.3873 20.1036 26.3482 20.5292 26.1378 20.757C25.9274 20.9848 25.6237 20.9301 25.4611 20.6352C24.8966 19.6056 24.2817 18.6467 23.6302 17.7654C23.1439 17.1067 22.6386 16.4921 22.1169 15.9199C22.0602 16.6016 21.9216 17.2939 21.7036 17.9597C21.4629 18.6926 21.1252 19.3989 20.693 20.0294C19.8211 21.3044 18.721 22.0533 17.6487 22.2298C16.5436 22.4135 15.4625 21.995 14.6699 20.9301C13.8785 19.8669 13.5345 18.3729 13.6177 16.817C13.6983 15.3089 14.186 13.7354 15.0592 12.4586C15.3478 12.0365 15.6628 11.6709 15.9942 11.3654C13.1956 10.1098 10.3968 9.86253 8.08844 10.6767C6.93422 11.0828 5.90474 11.7539 5.06803 12.6952C4.24017 13.6259 3.59249 14.8267 3.19052 16.3031C2.62475 18.3746 2.53656 21.004 3.08972 24.2058H27.0993L27.059 24.0945L26.7679 23.3616C26.6343 23.0384 26.7124 22.6234 26.943 22.438C27.1736 22.2508 27.4698 22.3603 27.6021 22.6835L27.9083 23.4534C28.0028 23.7007 28.0948 23.9515 28.1855 24.204H29.5161C29.7833 24.204 30 24.5077 30 24.8821C30 26.2896 29.5892 27.57 28.9277 28.4971C28.2661 29.4243 27.3539 30 26.3483 30H8.69967C8.43254 30 8.2158 29.6962 8.2158 29.3219C8.2158 28.9475 8.43254 28.6437 8.69967 28.6437H26.3483C27.0855 28.6437 27.7571 28.2199 28.2435 27.5382C28.6202 27.0102 28.8874 26.325 28.9882 25.5603H1.01183C1.11264 26.325 1.37851 27.0102 1.75528 27.5382C2.24167 28.2181 2.91328 28.6419 3.65044 28.6419H4.65221C4.91934 28.6419 5.13607 28.9457 5.13607 29.3201C5.13607 29.6945 4.91934 29.9982 4.65221 29.9982H3.65044C2.64741 29.9982 1.73512 29.4225 1.07358 28.4954C0.410772 27.5665 0 26.2861 0 24.8804C0 24.506 0.216735 24.2022 0.483869 24.2022H2.09802C1.55493 20.8574 1.67338 18.0655 2.28704 15.819C2.75326 14.1096 3.503 12.7179 4.46319 11.6389C5.41454 10.5705 6.56876 9.81284 7.85414 9.36074C9.79465 8.67731 12.0438 8.68613 14.3525 9.35721L14.3651 9.33779C14.7293 8.80445 15.1451 8.37708 15.5811 8.0645C16.0385 7.73603 16.5185 7.53293 16.9886 7.46408C17.4913 7.38814 17.8454 7.19917 18.1504 6.91487C18.473 6.61465 18.7703 6.18021 19.1282 5.65926L19.1572 5.61865C19.4797 5.16832 19.9031 4.93521 20.329 4.92283C20.6125 4.914 20.8973 5.00406 21.1544 5.18949L23.1289 2.30033L23.1287 2.29884ZM21.0622 7.69234C21.1139 7.49985 21.124 7.2897 21.0925 7.08839C21.0647 6.90472 20.9992 6.72989 20.9009 6.58683L20.8745 6.55151C20.7271 6.35902 20.5368 6.26542 20.3478 6.27072C20.1663 6.27602 19.9836 6.37492 19.8437 6.56564L19.8185 6.60449C19.4229 7.18019 19.0915 7.66231 18.6832 8.04202C18.2548 8.44114 17.7684 8.70606 17.0917 8.80846C16.7339 8.86144 16.3685 9.01685 16.0194 9.26585C15.8367 9.39653 15.659 9.5537 15.4877 9.73738C16.0673 9.9599 16.6482 10.223 17.2253 10.5268C17.5315 10.3873 17.8402 10.2937 18.1477 10.2478C18.7677 10.1542 19.2049 9.91928 19.5829 9.56785C19.9786 9.19875 20.339 8.67424 20.7712 8.04203L20.7989 8.00318C20.8808 7.88662 20.969 7.78417 21.0622 7.69234ZM20.8279 17.393C21.0295 16.7784 21.1454 16.1409 21.1744 15.521C21.226 14.4067 21.4226 13.5943 21.7364 12.8685C22.0388 12.1674 22.4307 11.5917 22.9032 10.9029C23.091 10.6274 23.1829 10.2654 23.1766 9.90865C23.1716 9.56605 23.0758 9.22346 22.8919 8.96205L22.8641 8.92497C22.6688 8.66713 22.4143 8.54174 22.1635 8.54881C21.9191 8.55587 21.6746 8.69009 21.4894 8.94792L21.4629 8.98678C20.9917 9.67374 20.5985 10.246 20.1172 10.6945C19.6157 11.1625 19.0449 11.4715 18.2523 11.5916C17.8112 11.657 17.3602 11.8477 16.933 12.1567C16.5172 12.4552 16.1165 12.8684 15.7586 13.3912C15.0467 14.4314 14.6497 15.7029 14.5855 16.9126C14.5237 18.0764 14.7707 19.1819 15.3428 19.9501C15.9136 20.7166 16.7113 21.0168 17.5391 20.8791C18.3998 20.7378 19.2881 20.1285 20.0013 19.0848C20.3567 18.5638 20.6351 17.9863 20.8304 17.3912L20.8279 17.393Z" fill="white"/>
</svg>
