<svg width="30" height="30" viewBox="0 0 30 30" fill="none" xmlns="http://www.w3.org/2000/svg">
<path d="M16.1745 1.70498L17.8787 3.4092V0.999746C17.2428 1.08471 16.6595 1.33465 16.1745 1.70498ZM14.1513 25.8322L17.1205 28.2504C17.2832 28.3827 17.3956 28.5579 17.4489 28.7496C17.5022 28.9408 17.4969 29.1469 17.4276 29.3424C17.3575 29.5405 17.2302 29.7055 17.0675 29.8206L17.0233 29.848C16.8686 29.9459 16.6884 30 16.4991 30H10.8359C10.6263 30 10.4297 29.9349 10.2674 29.8206L10.2419 29.8015C10.0925 29.688 9.97443 29.531 9.90814 29.342C9.83804 29.1469 9.8327 28.9408 9.88604 28.7496C9.93938 28.5579 10.0518 28.3827 10.2145 28.2504L13.1836 25.8326V19.2047C12.5073 19.1765 11.8714 19.0344 11.282 18.7814C10.6221 18.498 10.0221 18.0732 9.49132 17.5131C8.95983 16.9526 8.56778 16.3301 8.32013 15.6549C8.0721 14.9806 7.96732 14.254 8.00885 13.4836L8.49005 4.55296C8.50301 4.29502 8.71675 4.09462 8.97202 4.09385L13.8107 4.09347C13.9235 3.02286 14.4051 2.0616 15.1259 1.34074L15.1545 1.31445C15.9813 0.501397 17.1144 0 18.3625 0C19.624 0 20.7682 0.512446 21.5972 1.34074L21.6003 1.34379C22.4278 2.17285 22.9399 3.31623 22.9399 4.57734C22.9399 5.79502 22.4621 6.90412 21.6841 7.72479C21.0082 8.43726 20.1045 8.93371 19.0895 9.09563L19.3257 13.4836C19.3672 14.254 19.2625 14.9806 19.0144 15.6549C18.7668 16.3301 18.3747 16.9526 17.8432 17.5131C17.3125 18.0732 16.7124 18.498 16.0525 18.7814C15.4631 19.0344 14.8276 19.1765 14.1513 19.2047V25.8322ZM16.5116 28.9987L13.6675 26.6826L10.8157 29.0064L10.8229 29.0304C12.02 29.2064 15.1126 29.0323 16.5094 29.0323L16.5193 29.0064L16.5116 28.9987ZM14.7853 4.09347H17.1948L15.4909 2.39002C15.1202 2.87579 14.8703 3.45872 14.7853 4.09347ZM18.9127 5.81141L19.0373 8.12522C19.5978 8.0193 20.1132 7.78308 20.5506 7.44971L18.9127 5.81141ZM17.9053 5.06121H9.42922L9.24977 8.39192C11.314 7.89738 12.5953 8.52184 13.77 9.09411C14.9983 9.69304 16.0899 10.2245 18.1069 8.80455L17.9053 5.06121ZM9.19491 9.40653L8.97278 13.5324C8.93849 14.1698 9.02422 14.7691 9.22767 15.3219C9.43036 15.8748 9.75307 16.3861 10.1908 16.8479C10.6294 17.3104 11.1228 17.6605 11.6638 17.8929C12.2033 18.1246 12.7961 18.2423 13.4354 18.2423H13.8991C14.5384 18.2423 15.1313 18.1246 15.6708 17.8929C16.2118 17.6605 16.7052 17.3104 17.1437 16.8479C17.5815 16.3861 17.9042 15.8748 18.1069 15.3219C18.3103 14.7691 18.3961 14.1698 18.3618 13.5324L18.1675 9.92545C16.0038 11.2586 14.748 10.6471 13.3463 9.96355C12.2757 9.44196 11.1026 8.87008 9.19491 9.40653ZM21.2353 2.38888L19.5307 4.09347H21.9401C21.8552 3.45758 21.6052 2.87427 21.2353 2.38888ZM18.8464 3.4092L20.5506 1.70498C20.0649 1.33426 19.4819 1.08471 18.8464 0.999746V3.4092ZM19.5307 5.06121L21.2349 6.76543C21.6052 6.28004 21.8552 5.6971 21.9401 5.06121H19.5307Z" fill="white"/>
</svg>
