<svg width="393" height="344" viewBox="0 0 393 344" fill="none" xmlns="http://www.w3.org/2000/svg">
<path d="M208.609 286.496C280.655 286.496 339.059 229.077 339.059 158.248C339.059 87.4185 280.655 30 208.609 30C136.564 30 78.1597 87.4185 78.1597 158.248C78.1597 229.077 136.564 286.496 208.609 286.496Z" fill="#414346"/>
<path d="M393 143.48V129.611C393 126.967 391.932 124.43 390.031 122.56C388.13 120.69 385.552 119.64 382.863 119.64H339.3C337.968 119.64 336.65 119.382 335.42 118.881C334.191 118.38 333.073 117.645 332.132 116.719C331.191 115.793 330.444 114.694 329.934 113.484C329.425 112.274 329.163 110.978 329.163 109.668V95.7998C329.163 93.1552 330.231 90.6189 332.132 88.7489C334.033 86.8789 336.611 85.8283 339.3 85.8283H355.999C358.687 85.8283 361.266 84.7777 363.167 82.9077C365.068 81.0377 366.136 78.5014 366.136 75.8568V61.9883C366.136 59.3437 365.068 56.8074 363.167 54.9374C361.266 53.0674 358.687 52.0168 355.999 52.0168H57.1209C54.4325 52.0168 51.8542 53.0674 49.9532 54.9374C48.0522 56.8074 46.9842 59.3437 46.9842 61.9883V75.8568C46.9842 78.5014 48.0522 81.0377 49.9532 82.9077C51.8542 84.7777 54.4325 85.8283 57.1209 85.8283C59.8093 85.8283 62.3876 86.8789 64.2886 88.7489C66.1895 90.6189 67.2575 93.1552 67.2575 95.7998V109.668C67.2575 112.313 66.1895 114.849 64.2886 116.719C62.3876 118.589 59.8093 119.64 57.1209 119.64H10.1367C7.44825 119.64 4.86995 120.69 2.96896 122.56C1.06797 124.43 0 126.967 0 129.611V143.48C4.12938e-06 146.124 1.06797 148.661 2.96896 150.531C4.86995 152.401 7.44825 153.451 10.1367 153.451H56.6576C57.9887 153.451 59.3069 153.709 60.5367 154.21C61.7665 154.711 62.884 155.446 63.8253 156.372C64.7666 157.298 65.5132 158.397 66.0226 159.607C66.5321 160.817 66.7942 162.113 66.7942 163.423V177.291C67.0426 189.982 38.9011 187.263 33.3028 187.263H33.2657C30.5772 187.263 27.999 188.314 26.098 190.184C24.197 192.054 23.129 194.59 23.129 197.234V211.103C23.129 213.748 24.197 216.284 26.098 218.154C27.999 220.024 30.5772 221.074 33.2657 221.074H58.8458C61.5342 221.074 64.1125 222.125 66.0135 223.995C67.9144 225.865 68.9824 228.401 68.9824 231.046V244.914C68.9824 247.559 67.9144 250.095 66.0135 251.965C64.1125 253.835 61.5342 254.886 58.8458 254.886H30.1089C27.4205 254.886 24.8422 255.937 22.9412 257.807C21.0402 259.677 19.9723 262.213 19.9723 264.857V278.726C19.9723 281.371 21.0402 283.907 22.9412 285.777C24.8422 287.647 27.4205 288.697 30.1089 288.697H353.656C356.345 288.697 358.923 287.647 360.824 285.777C362.725 283.907 363.793 281.371 363.793 278.726V264.857C363.793 262.213 362.725 259.677 360.824 257.807C358.923 255.937 356.345 254.886 353.656 254.886H337.082C334.394 254.886 331.816 253.835 329.915 251.965C328.014 250.095 326.946 247.559 326.946 244.914V231.046C326.946 228.401 328.014 225.865 329.915 223.995C331.816 222.125 334.394 221.074 337.082 221.074H365.591C368.279 221.074 370.857 220.024 372.758 218.154C374.659 216.284 375.727 213.748 375.727 211.103V197.234C375.727 194.59 374.659 192.054 372.758 190.184C370.857 188.314 368.279 187.263 365.591 187.263H351.519C348.831 187.263 346.253 186.212 344.352 184.342C342.451 182.472 341.383 179.936 341.383 177.291V163.423C341.383 162.113 341.645 160.817 342.154 159.607C342.664 158.397 343.41 157.298 344.352 156.372C345.293 155.446 346.41 154.711 347.64 154.21C348.87 153.709 350.188 153.451 351.519 153.451H382.863C385.552 153.451 388.13 152.401 390.031 150.531C391.932 148.661 393 146.124 393 143.48Z" fill="#414346"/>
<path d="M210.811 121.37C231.178 121.37 247.689 105.352 247.689 85.5924C247.689 65.8332 231.178 49.8151 210.811 49.8151C190.444 49.8151 173.933 65.8332 173.933 85.5924C173.933 105.352 190.444 121.37 210.811 121.37Z" fill="#FF9D9D"/>
<path d="M198.152 78.233C198.151 78.188 198.151 78.143 198.151 78.0981C198.151 75.5603 198.889 73.0792 200.272 70.9666C201.655 68.854 203.621 67.2042 205.924 66.2246C208.226 65.2449 210.762 64.9792 213.213 65.4607C215.664 65.9423 217.92 67.1496 219.697 68.931C221.475 70.7124 222.695 72.9883 223.204 75.4727C223.714 77.957 223.489 80.539 222.559 82.894C221.629 85.249 220.035 87.2719 217.977 88.7084C215.92 90.145 213.49 90.9311 210.995 90.9679V102.655" stroke="#6B0000" stroke-width="4" stroke-linecap="round" stroke-linejoin="round"/>
<path d="M350.618 212.74C356.393 212.74 361.076 208.057 361.076 202.282C361.076 196.506 356.393 191.824 350.618 191.824C344.842 191.824 340.16 196.506 340.16 202.282C340.16 208.057 344.842 212.74 350.618 212.74Z" fill="#A1A1A1"/>
<path d="M322.546 214.941C325.586 214.941 328.05 212.477 328.05 209.437C328.05 206.397 325.586 203.933 322.546 203.933C319.506 203.933 317.042 206.397 317.042 209.437C317.042 212.477 319.506 214.941 322.546 214.941Z" fill="#A1A1A1"/>
<path d="M336.307 184.118C340.867 184.118 344.563 180.668 344.563 176.412C344.563 172.156 340.867 168.706 336.307 168.706C331.747 168.706 328.05 172.156 328.05 176.412C328.05 180.668 331.747 184.118 336.307 184.118Z" fill="#A1A1A1"/>
<path d="M106.231 283.193C113.223 283.193 118.891 277.525 118.891 270.534C118.891 263.542 113.223 257.874 106.231 257.874C99.2394 257.874 93.5714 263.542 93.5714 270.534C93.5714 277.525 99.2394 283.193 106.231 283.193Z" fill="#A1A1A1"/>
<path d="M81.4622 267.781C85.1101 267.781 88.0672 264.824 88.0672 261.176C88.0672 257.529 85.1101 254.571 81.4622 254.571C77.8143 254.571 74.8571 257.529 74.8571 261.176C74.8571 264.824 77.8143 267.781 81.4622 267.781Z" fill="#A1A1A1"/>
<path d="M87.5168 242.462C89.6447 242.462 91.3697 240.737 91.3697 238.609C91.3697 236.481 89.6447 234.756 87.5168 234.756C85.3889 234.756 83.6639 236.481 83.6639 238.609C83.6639 240.737 85.3889 242.462 87.5168 242.462Z" fill="#A1A1A1"/>
<path d="M109.534 250.168C114.701 250.168 118.891 246.225 118.891 241.361C118.891 236.497 114.701 232.555 109.534 232.555C104.366 232.555 100.176 236.497 100.176 241.361C100.176 246.225 104.366 250.168 109.534 250.168Z" fill="#A1A1A1"/>
<path d="M115.588 93.8487C122.884 93.8487 128.798 88.1808 128.798 81.189C128.798 74.1973 122.884 68.5294 115.588 68.5294C108.293 68.5294 102.378 74.1973 102.378 81.189C102.378 88.1808 108.293 93.8487 115.588 93.8487Z" fill="#A1A1A1"/>
<path d="M116.139 61.9244C120.091 61.9244 123.294 59.2136 123.294 55.8697C123.294 52.5259 120.091 49.8151 116.139 49.8151C112.187 49.8151 108.983 52.5259 108.983 55.8697C108.983 59.2136 112.187 61.9244 116.139 61.9244Z" fill="#A1A1A1"/>
<path d="M160.723 65.2268C163.763 65.2268 166.227 62.7625 166.227 59.7226C166.227 56.6828 163.763 54.2184 160.723 54.2184C157.683 54.2184 155.218 56.6828 155.218 59.7226C155.218 62.7625 157.683 65.2268 160.723 65.2268Z" fill="#A1A1A1"/>
<path d="M139.256 57.521C141.384 57.521 143.109 56.0424 143.109 54.2185C143.109 52.3945 141.384 50.916 139.256 50.916C137.128 50.916 135.403 52.3945 135.403 54.2185C135.403 56.0424 137.128 57.521 139.256 57.521Z" fill="#A1A1A1"/>
<path d="M143.66 83.9412C148.827 83.9412 153.017 79.7518 153.017 74.584C153.017 69.4162 148.827 65.2269 143.66 65.2269C138.492 65.2269 134.303 69.4162 134.303 74.584C134.303 79.7518 138.492 83.9412 143.66 83.9412Z" fill="#A1A1A1"/>
<path d="M319.328 149.992H102.832L95.7731 132.378H319.328C319.606 132.378 319.881 132.432 320.138 132.537C320.395 132.642 320.628 132.795 320.825 132.989C321.022 133.182 321.178 133.412 321.284 133.665C321.391 133.918 321.445 134.189 321.445 134.462V147.907C321.445 148.181 321.391 148.452 321.284 148.705C321.178 148.958 321.022 149.188 320.825 149.381C320.628 149.575 320.395 149.728 320.138 149.833C319.881 149.938 319.606 149.992 319.328 149.992Z" fill="#FF4F4F"/>
<path d="M288.614 242.462H141.258C140.539 242.462 139.837 242.247 139.246 241.844C138.655 241.442 138.203 240.872 137.95 240.211L103.479 149.992H312.639L292.061 239.754C291.885 240.523 291.447 241.21 290.821 241.702C290.195 242.194 289.416 242.462 288.614 242.462Z" fill="#3E0000"/>
<path d="M301.63 196.777C286.585 197.916 271.541 198.512 256.496 198.917C248.973 199.171 241.451 199.227 233.929 199.376L211.361 199.529C196.317 199.545 181.272 199.344 166.227 198.925C151.182 198.522 136.137 197.923 121.092 196.777C136.137 195.631 151.182 195.032 166.227 194.628C181.272 194.229 196.317 194.028 211.361 194.025L233.929 194.177C241.451 194.326 248.973 194.383 256.496 194.637C271.541 195.041 286.585 195.638 301.63 196.777Z" fill="#FF4F4F"/>
<path d="M271.908 149.992C271.055 158.059 269.752 166.026 268.314 173.963C266.857 181.896 265.231 189.792 263.436 197.649C261.651 205.509 259.701 213.332 257.587 221.118C256.52 225.009 255.415 228.892 254.236 232.758C253.625 234.686 253.044 236.621 252.41 238.544L251.922 240.005C251.729 240.541 251.417 241.028 251.008 241.427C250.624 241.803 250.16 242.089 249.65 242.265C249.139 242.44 248.596 242.5 248.059 242.44C248.544 242.383 249.01 242.223 249.427 241.971C249.843 241.719 250.2 241.381 250.471 240.98C250.725 240.61 250.892 240.189 250.961 239.748L251.156 238.265C251.416 236.258 251.729 234.264 252.013 232.263C252.623 228.27 253.307 224.293 254.029 220.325C255.486 212.392 257.114 204.498 258.912 196.641C260.704 188.783 262.656 180.96 264.768 173.173C266.907 165.392 269.182 157.642 271.908 149.992ZM188.317 242.44C187.758 242.499 187.193 242.43 186.667 242.236C186.14 242.043 185.666 241.73 185.283 241.324C184.906 240.896 184.604 240.41 184.389 239.884L183.696 238.464C182.772 236.569 181.902 234.655 181.002 232.752C179.241 228.931 177.551 225.084 175.897 221.223C172.603 213.497 169.47 205.711 166.5 197.864C163.52 190.021 160.699 182.119 158.035 174.159C155.395 166.19 152.887 158.172 150.815 149.992C154.695 157.5 158.139 165.171 161.45 172.891C164.745 180.617 167.875 188.404 170.842 196.252C173.815 204.097 176.635 212 179.3 219.959C180.622 223.944 181.908 227.941 183.123 231.964C183.711 233.983 184.329 235.991 184.893 238.019L185.316 239.54C185.412 240.017 185.587 240.476 185.831 240.898C186.102 241.323 186.466 241.683 186.896 241.95C187.327 242.217 187.812 242.384 188.317 242.44Z" fill="#FF4F4F"/>
<path d="M177.786 314.017C185.993 314.017 192.647 307.61 192.647 299.706C192.647 291.802 185.993 285.395 177.786 285.395C169.578 285.395 162.924 291.802 162.924 299.706C162.924 307.61 169.578 314.017 177.786 314.017Z" fill="#FF4F4F"/>
<path d="M177.235 306.311C180.883 306.311 183.84 303.354 183.84 299.706C183.84 296.058 180.883 293.101 177.235 293.101C173.587 293.101 170.63 296.058 170.63 299.706C170.63 303.354 173.587 306.311 177.235 306.311Z" fill="#FF9D9D"/>
<path d="M261.45 314.017C269.657 314.017 276.311 307.61 276.311 299.706C276.311 291.802 269.657 285.395 261.45 285.395C253.242 285.395 246.588 291.802 246.588 299.706C246.588 307.61 253.242 314.017 261.45 314.017Z" fill="#FF4F4F"/>
<path d="M262 306.311C265.648 306.311 268.605 303.354 268.605 299.706C268.605 296.058 265.648 293.101 262 293.101C258.352 293.101 255.395 296.058 255.395 299.706C255.395 303.354 258.352 306.311 262 306.311Z" fill="#FF9D9D"/>
<path d="M212.94 149.992C214.381 157.641 215.356 165.317 216.19 173.002C217.004 180.688 217.643 188.384 218.108 196.09C218.582 203.796 218.885 211.512 219.017 219.237C219.126 226.964 219.09 234.699 218.583 242.462C217.135 234.813 216.159 227.137 215.327 219.452C214.512 211.766 213.875 204.07 213.415 196.363C212.947 188.657 212.646 180.942 212.512 173.216C212.405 165.489 212.439 157.754 212.94 149.992Z" fill="#FF4F4F"/>
<path d="M286.088 277.689H154.294C153.822 277.689 153.362 277.549 152.973 277.286C152.584 277.024 152.286 276.652 152.117 276.219L75.7874 80.8155H35.3571C34.7386 80.8155 34.1455 80.5742 33.7082 80.1447C33.2709 79.7152 33.0252 79.1327 33.0252 78.5254C33.0252 77.918 33.2709 77.3355 33.7082 76.906C34.1455 76.4766 34.7386 76.2353 35.3571 76.2353H77.3903C77.8621 76.2353 78.3227 76.3758 78.7114 76.6383C79.1001 76.9008 79.3986 77.2728 79.5676 77.7054L155.897 273.109H286.088C286.707 273.109 287.3 273.35 287.737 273.78C288.174 274.209 288.42 274.792 288.42 275.399C288.42 276.006 288.174 276.589 287.737 277.018C287.3 277.448 286.707 277.689 286.088 277.689Z" fill="#FF4F4F"/>
<path d="M55.687 71.832H27.9769C27.1171 71.832 26.4202 72.5299 26.4202 73.3909V84.584C26.4202 85.4449 27.1171 86.1429 27.9769 86.1429H55.687C56.5467 86.1429 57.2437 85.4449 57.2437 84.584V73.3909C57.2437 72.5299 56.5467 71.832 55.687 71.832Z" fill="#FF4F4F"/>
<path d="M210.261 111.462C211.476 111.462 212.462 110.476 212.462 109.261C212.462 108.045 211.476 107.059 210.261 107.059C209.045 107.059 208.059 108.045 208.059 109.261C208.059 110.476 209.045 111.462 210.261 111.462Z" fill="#6B0000"/>
</svg>
