<svg xmlns="http://www.w3.org/2000/svg" width="30" height="32" viewbox="0 0 30 32" fill="none">
  <g xmlns="http://www.w3.org/2000/svg" clip-path="url(#clip0_36_131)">
    <path d="M7.87728 9.38207C4.16433 13.2328 0.669355 17.9054 0.0114473 23.4167C-0.343334 26.1744 0.679726 29.5364 3.40205 30.8249C10.1416 33.5268 17.4685 28.1631 21.7399 23.3789C39.3581 5.79549 25.7237 -8.2697 7.87728 9.38207ZM22.879 21.5083C22.3939 22.115 21.9708 22.6505 21.7566 22.9967C21.4805 23.0965 20.8342 23.6008 20.0446 24.2984C16.187 27.6214 11.4756 30.7991 6.24671 30.4605C0.0926957 29.9355 0.48242 22.9302 2.70913 18.6805C6.20146 11.7287 14.0547 3.85361 21.9295 2.60763C25.2412 2.04883 28.7827 3.70836 28.8626 7.40733C28.9646 9.06815 28.5556 10.7768 27.9892 12.4028C26.7623 15.648 25.0595 18.7817 22.879 21.5083ZM21.4792 9.60113C20.1723 8.3435 18.7841 6.94847 16.9611 6.47394C16.3986 6.35855 15.7432 6.69694 15.6683 7.30759C15.5664 8.41479 16.3108 9.34699 16.8669 10.2014C18.6873 12.517 20.8368 14.7495 23.7548 15.5873C23.9767 15.6637 24.5405 15.4835 24.4063 15.2164C24.6553 15.1633 24.7366 14.808 24.6863 14.5423C24.1883 12.5755 22.8081 11.0496 21.4792 9.60113ZM23.8854 14.9362C22.2817 14.2918 20.8548 12.854 19.642 11.5939C18.6873 10.4841 17.5713 9.29259 17.0875 7.9104C18.4344 8.41602 19.5684 9.51158 20.6574 10.4502C22.0534 11.7636 23.5435 13.3155 24.2261 15.08C24.1332 15.0294 24.0285 14.9906 23.8854 14.9362ZM14.3576 13.3311C13.5151 12.8566 12.2056 11.8285 11.1284 12.1526C10.9374 12.2784 10.9271 12.3808 10.9942 12.4625C10.0163 12.9473 11.6702 15.2888 12.0199 15.8476C13.6609 18.014 15.7573 20.4438 18.4655 21.1893C20.8265 21.2269 19.3389 18.4134 18.5662 17.4254C17.4076 15.8152 15.9857 14.4422 14.3576 13.3311ZM14.7149 17.2543C13.301 15.9305 11.8315 14.3423 11.1374 12.5647C12.9088 13.1948 14.4854 14.6353 15.7923 16.0186C16.7663 17.1439 17.872 18.3432 18.3364 19.7668C16.965 19.3001 15.8103 18.1994 14.7149 17.2543ZM11.0188 20.1792C10.0577 19.1938 6.13042 15.5481 5.1036 17.7145C4.34756 20.0223 11.6781 27.3995 13.8301 25.8877C14.1088 25.9188 14.2301 25.4897 14.1759 25.2161C13.6895 23.1689 12.3786 21.6585 11.0188 20.1792ZM6.02606 18.0257C6.01186 18.0114 6.00025 17.9997 6.02606 18.0257ZM13.6042 25.6492C11.8341 25.0386 10.282 23.5528 8.98928 22.1718C8.03974 21.0555 6.94442 19.8692 6.47222 18.4717C7.87976 18.9463 9.07701 20.0587 10.1981 21.0272C11.5734 22.3327 13.0428 23.8989 13.6673 25.6778C13.6466 25.6675 13.6262 25.6583 13.6042 25.6492Z" fill="white"/>
    </g>
</svg>