<svg width="30" height="30" viewBox="0 0 30 30" fill="none" xmlns="http://www.w3.org/2000/svg">
<path d="M6.65307 25.4031C6.38593 25.4031 6.1692 25.1864 6.1692 24.9192C6.1692 24.6521 6.38593 24.4354 6.65307 24.4354H6.70095C6.96808 24.4354 7.18482 24.6521 7.18482 24.9192C7.18482 25.1864 6.96808 25.4031 6.70095 25.4031H6.65307ZM10.2482 5.54449C10.1361 5.30255 10.2407 5.01401 10.4826 4.90185C10.7245 4.78969 11.0131 4.89429 11.1252 5.13622C11.6267 6.21231 11.2903 6.99231 10.9791 7.71685C10.7875 8.16166 10.6086 8.5775 10.7875 8.95804C10.9009 9.19872 10.7976 9.48727 10.5569 9.60068C10.3163 9.71409 10.0277 9.61076 9.91429 9.37009C9.54762 8.5939 9.80971 7.98652 10.0907 7.33507C10.32 6.80333 10.567 6.22871 10.2482 5.54449ZM7.73687 4.68765C7.62472 4.44572 7.72931 4.15717 7.97124 4.04501C8.21317 3.93285 8.50172 4.03745 8.61388 4.27938C9.25527 5.65664 8.81927 6.66976 8.41479 7.60969C8.14261 8.24224 7.88808 8.83449 8.16026 9.41285C8.27366 9.65352 8.17034 9.94207 7.92966 10.0555C7.68899 10.1689 7.40044 10.0656 7.28702 9.8249C6.82709 8.85087 7.16479 8.06584 7.52644 7.22662C7.84901 6.47814 8.19679 5.67169 7.73687 4.68631V4.68765ZM4.9143 5.89733C4.80215 5.65539 4.90674 5.36684 5.14867 5.25468C5.39061 5.14252 5.67915 5.24712 5.79131 5.48906C6.4327 6.86631 5.99671 7.87943 5.59222 8.81937C5.32004 9.45317 5.06551 10.0442 5.33769 10.6225C5.45109 10.8632 5.34777 11.1517 5.10709 11.2652C4.86642 11.3786 4.57787 11.2752 4.46445 11.0346C4.00452 10.0605 4.34222 9.27551 4.70387 8.43629C5.02645 7.68781 5.37296 6.88136 4.9143 5.89598V5.89733ZM23.1287 5.64027C23.3127 5.44874 23.6189 5.44244 23.8117 5.62641C24.0032 5.81038 24.0095 6.11657 23.8256 6.30937L21.851 8.36959C21.938 8.52206 22.001 8.68587 22.0375 8.85472C22.0577 8.94922 22.0703 9.04499 22.0753 9.14201L22.1434 9.13949C22.4899 9.13193 22.8389 9.2151 23.1489 9.39151L25.567 6.86758C25.751 6.67605 26.0571 6.66975 26.25 6.85372C26.4415 7.03769 26.4478 7.34388 26.2638 7.53669L23.8457 10.0594C24.0347 10.363 24.133 10.7083 24.1393 11.0548C24.1494 11.5563 23.9692 12.0629 23.5975 12.4522C23.1628 12.9046 22.8024 13.2826 22.5592 13.6846C22.4495 13.866 22.3588 14.0588 22.2895 14.278C22.9889 14.7972 23.663 15.3655 24.2993 15.9804C24.9836 16.6407 25.63 17.3602 26.2248 18.1339C26.3873 18.3443 26.3482 18.648 26.1378 18.8105C25.9274 18.9731 25.6237 18.934 25.4611 18.7236C24.8966 17.989 24.2817 17.3048 23.6302 16.676C23.1439 16.206 22.6386 15.7674 22.1169 15.3592C22.0602 15.8456 21.9216 16.3395 21.7036 16.8146C21.4629 17.3375 21.1252 17.8415 20.693 18.2914C19.8211 19.2011 18.721 19.7354 17.6487 19.8614C16.5436 19.9925 15.4625 19.6938 14.6699 18.934C13.8785 18.1754 13.5345 17.1094 13.6177 15.9993C13.6983 14.9232 14.186 13.8005 15.0592 12.8894C15.3478 12.5883 15.6628 12.3274 15.9942 12.1094C13.1956 11.2135 10.3968 11.0371 8.08844 11.618C6.93422 11.9078 5.90474 12.3867 5.06803 13.0583C4.24017 13.7223 3.59249 14.5792 3.19052 15.6326C2.62475 17.1107 2.53656 18.9868 3.08972 21.2713H27.0993L27.059 21.1919L26.7679 20.669C26.6343 20.4384 26.7124 20.1423 26.943 20.01C27.1736 19.8764 27.4698 19.9545 27.6021 20.1851L27.9083 20.7345C28.0028 20.9109 28.0948 21.0898 28.1855 21.27H29.5161C29.7833 21.27 30 21.4868 30 21.7539C30 22.7582 29.5892 23.6717 28.9277 24.3333C28.2661 24.9948 27.3539 25.4056 26.3483 25.4056H8.69967C8.43254 25.4056 8.2158 25.1889 8.2158 24.9217C8.2158 24.6546 8.43254 24.4379 8.69967 24.4379H26.3483C27.0855 24.4379 27.7571 24.1354 28.2435 23.6491C28.6202 23.2723 28.8874 22.7834 28.9882 22.2378H1.01183C1.11264 22.7834 1.37851 23.2723 1.75528 23.6491C2.24167 24.1342 2.91328 24.4366 3.65044 24.4366H4.65221C4.91934 24.4366 5.13607 24.6533 5.13607 24.9205C5.13607 25.1876 4.91934 25.4043 4.65221 25.4043H3.65044C2.64741 25.4043 1.73512 24.9936 1.07358 24.332C0.410772 23.6692 0 22.7557 0 21.7526C0 21.4855 0.216735 21.2688 0.483869 21.2688H2.09802C1.55493 18.8822 1.67338 16.8901 2.28704 15.2872C2.75326 14.0674 3.503 13.0745 4.46319 12.3046C5.41454 11.5422 6.56876 11.0017 7.85414 10.6791C9.79465 10.1914 12.0438 10.1977 14.3525 10.6766L14.3651 10.6627C14.7293 10.2821 15.1451 9.97721 15.5811 9.75418C16.0385 9.51981 16.5185 9.37489 16.9886 9.32577C17.4913 9.27158 17.8454 9.13675 18.1504 8.9339C18.473 8.71968 18.7703 8.40971 19.1282 8.038L19.1572 8.00902C19.4797 7.6877 19.9031 7.52137 20.329 7.51253C20.6125 7.50623 20.8973 7.5705 21.1544 7.7028L23.1289 5.64133L23.1287 5.64027ZM21.0622 9.48864C21.1139 9.35129 21.124 9.20134 21.0925 9.05771C21.0648 8.92666 20.9992 8.80191 20.9009 8.69984L20.8745 8.67464C20.7271 8.53729 20.5368 8.4705 20.3478 8.47428C20.1663 8.47807 19.9836 8.54863 19.8437 8.68472L19.8185 8.71244C19.4229 9.12321 19.0915 9.46721 18.6832 9.73814C18.2548 10.0229 17.7684 10.2119 17.0917 10.285C16.7339 10.3228 16.3685 10.4337 16.0194 10.6114C15.8367 10.7046 15.659 10.8168 15.4877 10.9478C16.0673 11.1066 16.6482 11.2943 17.2253 11.5111C17.5315 11.4115 17.8402 11.3447 18.1477 11.312C18.7677 11.2452 19.2049 11.0776 19.5829 10.8269C19.9786 10.5635 20.339 10.1892 20.7712 9.73815L20.7989 9.71042C20.8808 9.62726 20.969 9.55416 21.0622 9.48864ZM20.8279 16.4102C21.0295 15.9717 21.1454 15.5168 21.1744 15.0746C21.226 14.2795 21.4226 13.6998 21.7364 13.1819C22.0388 12.6817 22.4307 12.2709 22.9032 11.7794C23.091 11.5829 23.1829 11.3245 23.1766 11.07C23.1716 10.8256 23.0758 10.5811 22.8919 10.3946L22.8641 10.3681C22.6688 10.1842 22.4143 10.0947 22.1635 10.0997C21.9191 10.1048 21.6746 10.2006 21.4894 10.3845L21.4629 10.4122C20.9917 10.9024 20.5985 11.3107 20.1172 11.6307C19.6157 11.9647 19.0449 12.1852 18.2523 12.2708C17.8112 12.3175 17.3602 12.4536 16.933 12.6741C16.5172 12.887 16.1165 13.1819 15.7586 13.5549C15.0467 14.2971 14.6497 15.2043 14.5855 16.0675C14.5237 16.8979 14.7707 17.6867 15.3428 18.2348C15.9136 18.7817 16.7113 18.9959 17.5391 18.8976C18.3998 18.7968 19.2881 18.3621 20.0013 17.6174C20.3567 17.2457 20.6351 16.8336 20.8304 16.409L20.8279 16.4102Z" fill="white"/>
</svg>
