<svg width="30" height="30" viewBox="0 0 30 30" fill="none" xmlns="http://www.w3.org/2000/svg">
<g clip-path="url(#clip0_32_24)">
<path d="M13.6523 0.0996132C13.541 0.105473 13.1426 0.146488 12.7734 0.181644C11.373 0.310551 9.55664 0.69141 9.33398 0.896488C9.15234 1.05469 9.1582 1.3125 9.3457 1.49414C9.50977 1.66407 9.59766 1.66993 9.99609 1.55274C10.4648 1.41797 11.6895 1.18946 12.5684 1.07813C13.582 0.949223 16.2246 0.925785 17.168 1.04297C20.4727 1.44727 22.9453 2.35547 24.9902 3.91993C25.4707 4.28321 26.4258 5.21485 26.8359 5.71289C27.5332 6.5625 28.2305 7.76368 28.6523 8.81836C28.9687 9.6211 28.8574 10.1895 28.3125 10.5762L28.0547 10.752H15H1.94531L1.6875 10.5762C1.13086 10.1777 1.01953 9.62696 1.34766 8.81836C2.48437 5.96485 4.54688 3.80274 7.42383 2.46094C8.00977 2.18555 8.14453 2.0625 8.14453 1.81641C8.14453 1.65235 7.89258 1.40625 7.7168 1.40625C7.64062 1.40625 7.21289 1.58789 6.76172 1.81055C4.13672 3.11133 2.18555 5.03321 0.966796 7.52344C0.761718 7.94532 0.527343 8.49024 0.439453 8.73047C0.146484 9.55664 0.263671 10.3477 0.773437 10.9277L1.01367 11.1973L0.714843 11.502C0.158203 12.0762 -0.0351568 12.6387 0.0117182 13.5996C0.0351557 14.0684 0.070312 14.2266 0.216796 14.543C0.515624 15.1758 0.996093 15.6211 1.59961 15.8262L1.9043 15.9316V17.2266V18.5273L1.62305 18.6328C0.925781 18.8965 0.363281 19.459 0.134765 20.1152C-0.0292974 20.584 -0.0117193 21.7148 0.164062 22.1484C0.421874 22.793 0.884765 23.25 1.55273 23.5254L1.9043 23.666L1.93945 24.3281C1.96289 24.6914 2.02148 25.1602 2.08008 25.3711C2.63672 27.4746 4.34766 29.0039 6.88477 29.666C7.95703 29.9473 8.04492 29.9473 15.3223 29.9297C22.0312 29.9063 22.1895 29.9063 22.7051 29.7832C25.4883 29.1387 27.3398 27.5742 27.9199 25.3711C27.9785 25.1602 28.0371 24.6914 28.0605 24.3281L28.0957 23.666L28.4473 23.5254C29.4316 23.127 29.9355 22.3887 29.9883 21.2637C30.0293 20.3438 29.8066 19.7168 29.2441 19.1719C28.9805 18.9082 28.3711 18.5742 28.166 18.5742C28.0723 18.5742 28.0664 18.4863 28.0781 17.25L28.0957 15.9316L28.4004 15.8262C29.0039 15.6211 29.4844 15.1758 29.7832 14.543C29.9297 14.2266 29.9648 14.0684 29.9883 13.5996C30.0352 12.6563 29.8359 12.0645 29.2852 11.502L28.9863 11.1973L29.2266 10.9277C29.748 10.3301 29.8535 9.54493 29.5195 8.63086C28.8281 6.71485 27.3633 4.6875 25.7461 3.39258C23.3613 1.49414 20.4023 0.433598 16.623 0.123051C15.9375 0.0644569 14.1445 0.0468788 13.6523 0.0996132ZM28.2715 11.8184C28.8223 12.1172 29.0742 12.5391 29.1094 13.2481C29.1504 14.0918 28.916 14.5664 28.2949 14.9121L27.9785 15.0879H15H2.02148L1.70508 14.9121C1.08398 14.5664 0.849609 14.0918 0.890625 13.2481C0.919921 12.6973 1.00781 12.4629 1.3125 12.1406C1.5 11.9414 1.72852 11.7949 1.99219 11.7129C2.07422 11.6895 7.96875 11.6719 15.0879 11.6777L28.0371 11.6895L28.2715 11.8184ZM27.1875 16.4941V16.9922H22.7109C18.5332 16.9922 18.2285 16.9981 18.1172 17.0918C18.0469 17.1504 17.9766 17.2676 17.9531 17.3555C17.9238 17.4844 17.9531 17.5488 18.0937 17.6953L18.2695 17.8711H22.7285H27.1875V18.9199C27.1875 19.8926 27.1816 19.9746 27.0645 20.1211C26.8887 20.3438 26.6191 20.4668 26.3906 20.4316C26.2793 20.4141 26.0449 20.291 25.8574 20.1563C25.4355 19.8516 25.002 19.7285 24.4043 19.7344C23.8301 19.7344 23.4082 19.8809 22.8926 20.25C22.166 20.7715 22.0078 20.8535 21.6914 20.9238C21.0703 21.0527 20.6309 20.918 19.9277 20.3731C19.4297 19.9922 19.0488 19.8223 18.5391 19.752C17.7363 19.6348 17.0977 19.834 16.2832 20.4434C15.3457 21.1523 14.6777 21.1523 13.7051 20.4434C13.0781 19.9863 12.7266 19.8223 12.2109 19.752C11.4199 19.6348 10.7871 19.8281 10.0078 20.4141C9.76758 20.5898 9.47461 20.7773 9.35742 20.8301L9.14062 20.918V19.6172C9.14062 18.416 9.15234 18.293 9.25781 18.1172C9.32227 18.0176 9.38086 17.9238 9.38672 17.918C9.39844 17.9121 11.0098 17.8887 12.9668 17.8711L16.5352 17.8418L16.6465 17.7012C16.793 17.5195 16.7871 17.2969 16.6289 17.127L16.5059 16.9922H12.9551C9.50976 16.9922 9.39844 16.9981 9.14062 17.1152C8.81836 17.2617 8.58398 17.4785 8.41992 17.7832C8.29102 18.0117 8.29102 18.082 8.26172 21.0645C8.22656 24.5156 8.25 24.375 7.74609 24.6152C7.31836 24.8262 6.9082 24.6856 6.65039 24.252C6.53906 24.0586 6.5332 23.918 6.50391 21.0059C6.46875 17.6367 6.49219 17.8066 6.08203 17.4023C5.70703 17.0215 5.56641 16.9922 4.11914 16.9922H2.8125V16.4941V15.9961H15H27.1875V16.4941ZM5.44336 18.0234L5.625 18.1758V18.9258C5.625 19.7637 5.63672 19.7402 5.15625 19.7461C4.89258 19.752 4.39453 19.957 3.99023 20.2324C3.64453 20.4727 3.48633 20.4961 3.1875 20.3555C2.84766 20.1914 2.8125 20.0566 2.8125 18.8965V17.8711H4.03711H5.26172L5.44336 18.0234ZM28.5645 19.7578C29.0039 20.1445 29.0918 20.3731 29.0918 21.0938C29.0918 21.6621 29.0801 21.7324 28.9219 22.0195C28.8281 22.1836 28.6641 22.3945 28.5527 22.4766C28.1074 22.8164 28.7695 22.793 18.5449 22.793H9.14062V22.3066V21.8145L9.48633 21.7207C9.7207 21.6563 9.98438 21.5098 10.3477 21.2402C11.0566 20.7188 11.2793 20.6191 11.7715 20.6133C12.3223 20.6074 12.5391 20.6953 13.1953 21.1641C14.0391 21.7676 14.707 21.9492 15.4805 21.8027C15.9492 21.709 16.3242 21.5215 16.8516 21.1172C17.3965 20.7012 17.625 20.6133 18.1406 20.6133C18.6562 20.6133 18.9375 20.7305 19.5703 21.2051C20.3027 21.7559 21 21.9434 21.7969 21.7969C22.2656 21.7148 22.6406 21.5273 23.1738 21.1231C23.7129 20.707 23.9531 20.6133 24.4687 20.6133C24.9141 20.6133 25.0195 20.6484 25.5293 20.9941C26.1445 21.4043 26.8242 21.4102 27.4043 21.0117C27.7852 20.7539 28.0664 20.2207 28.0664 19.7754C28.0664 19.4941 28.0781 19.4648 28.1836 19.4941C28.248 19.5117 28.418 19.6289 28.5645 19.7578ZM1.94531 19.8867C1.97461 20.3555 2.19727 20.7481 2.5957 21.0176C3.16406 21.3984 3.84375 21.4043 4.39453 21.0293C4.81055 20.7481 5.04492 20.6426 5.34961 20.6074L5.625 20.5664V21.6797V22.793H3.83789C1.91016 22.793 1.85156 22.7871 1.44727 22.4766C1.33594 22.3945 1.17187 22.1836 1.07812 22.0195C0.919921 21.7324 0.908203 21.6621 0.908203 21.0938C0.908203 20.3672 0.996093 20.1445 1.44141 19.752C1.83984 19.4063 1.91602 19.4238 1.94531 19.8867ZM5.64844 23.8008C5.66602 23.877 5.68359 24.0117 5.68359 24.1113C5.68359 24.3691 5.92969 24.8438 6.1875 25.0898C6.90234 25.7695 8.08008 25.7344 8.70117 25.0078C8.94141 24.7207 9.14062 24.2285 9.14062 23.9063V23.6719H18.1641H27.1875V24.1582C27.1875 25.2832 26.6426 26.5254 25.8047 27.3047C25.0195 28.0371 23.7891 28.6406 22.5 28.9219C22.0312 29.0273 21.6211 29.0332 15 29.0332C7.22461 29.0332 7.68164 29.0566 6.50391 28.6406C4.64648 27.9844 3.48047 26.9004 2.99414 25.3652C2.85937 24.9434 2.74805 24.082 2.79492 23.8301L2.82422 23.6719H4.21875H5.61328L5.64844 23.8008Z" fill="white"/>
<path d="M11.1387 3.47462C10.9395 3.57423 10.4766 4.44141 10.5234 4.62891C10.5762 4.85743 10.7227 4.98048 10.9395 4.98048C11.1855 4.98048 11.291 4.87501 11.5723 4.33009C11.7832 3.91993 11.7949 3.87305 11.7246 3.70899C11.6836 3.60938 11.584 3.50391 11.5078 3.4629C11.3262 3.38087 11.3145 3.38087 11.1387 3.47462Z" fill="white"/>
<path d="M14.6719 3.52149C14.5781 3.62695 14.5605 3.73828 14.5605 4.23047C14.5605 4.77539 14.5723 4.82227 14.7012 4.92774C14.877 5.07422 15.1465 5.06836 15.293 4.92188C15.3926 4.82227 15.4102 4.72852 15.4102 4.20117C15.4102 3.68555 15.3926 3.58008 15.3047 3.49805C15.1465 3.35742 14.8066 3.36914 14.6719 3.52149Z" fill="white"/>
<path d="M18.4746 3.45703C18.3281 3.51563 18.2227 3.68555 18.2227 3.87305C18.2227 3.94336 18.3457 4.21289 18.4922 4.46485C18.6855 4.79297 18.8027 4.9336 18.9082 4.95703C19.1309 5.01563 19.3535 4.91602 19.4473 4.7168C19.5234 4.55274 19.5176 4.52344 19.3008 4.11328C18.9785 3.50977 18.7676 3.33985 18.4746 3.45703Z" fill="white"/>
</g>
<defs>
<clipPath id="clip0_32_24">
<rect width="30" height="30" fill="white"/>
</clipPath>
</defs>
</svg>
