<svg width="30" height="33" viewBox="0 0 30 33" fill="none" xmlns="http://www.w3.org/2000/svg">
<path d="M28.7199 16.6299H27.6785C27.5809 14.9101 27.1953 13.2502 26.5279 11.6897C26.426 11.4508 26.1651 11.3474 25.9451 11.458C25.7252 11.5689 25.6297 11.8523 25.7318 12.0912C26.345 13.5254 26.7027 15.0501 26.7989 16.6299H6.69708C6.4547 16.6299 6.25832 16.8432 6.25832 17.1065C6.25832 17.3698 6.4547 17.5831 6.69708 17.5831H28.7199C28.9419 17.5831 29.1222 17.7792 29.1222 18.0203V18.6021C29.1222 18.8432 28.9419 19.0394 28.7199 19.0394H1.28014C1.05812 19.0394 0.877762 18.8432 0.877762 18.6021V18.0203C0.877762 17.7792 1.05812 17.5831 1.28014 17.5831H4.65157C4.89395 17.5831 5.09056 17.3698 5.09056 17.1065C5.09056 16.8432 4.89395 16.6299 4.65157 16.6299H3.20114C3.39455 13.4635 4.6447 10.5178 6.75179 8.28985C8.78242 6.14294 11.4063 4.87905 14.2106 4.67868C14.2122 4.67868 14.2138 4.67893 14.2154 4.67868C14.3349 4.67022 14.453 4.66376 14.5697 4.65904C14.593 4.65829 14.6162 4.65705 14.6395 4.6563C14.6812 4.65481 14.7226 4.65382 14.7636 4.65282C14.8423 4.65133 14.921 4.64984 15 4.64984C15.1048 4.64984 15.2097 4.65208 15.3143 4.65506C15.3452 4.65605 15.3758 4.65705 15.407 4.65804C15.4875 4.66103 15.5679 4.6655 15.6482 4.67022C15.6908 4.67271 15.7333 4.6752 15.7761 4.67818C19.379 4.93523 22.6936 6.97028 24.7563 10.2334C24.8934 10.4502 25.1667 10.5056 25.3665 10.3565C25.5663 10.2076 25.6171 9.91073 25.4798 9.6937C23.4501 6.48252 20.2908 4.37936 16.799 3.83691C17.0178 3.46799 17.1407 3.03368 17.1407 2.57875C17.1407 2.3197 17.0343 1.84214 16.3216 1.55724C15.9657 1.41504 15.4962 1.33649 15 1.33649C14.5036 1.33649 14.0341 1.41504 13.6782 1.55724C12.9655 1.84214 12.8593 2.3197 12.8593 2.57875C12.8593 3.03244 12.9817 3.466 13.1992 3.83418C10.548 4.24164 8.08914 5.5453 6.13953 7.6067C3.86192 10.0149 2.51633 13.2039 2.32155 16.6297H1.28014C0.574265 16.6299 0 17.2537 0 18.0203V18.6021C0 19.369 0.574265 19.9927 1.28014 19.9927H6.00769C5.77171 20.1683 5.54558 20.3651 5.33386 20.5837L5.32516 20.5926C5.31166 20.6063 5.29884 20.621 5.28717 20.6366L3.20366 23.3846C2.94228 23.2044 2.63283 23.1388 2.3275 23.2024C2.00912 23.2686 1.73378 23.4654 1.55205 23.7568L0.732651 25.0692C0.357971 25.6695 0.502625 26.4897 1.05492 26.8971L6.66183 31.0343C6.86508 31.1843 7.09991 31.2623 7.34047 31.2623C7.41692 31.2623 7.49405 31.2544 7.57095 31.2384C7.8891 31.1723 8.16444 30.9754 8.34618 30.6841L9.16557 29.3717C9.54025 28.7713 9.39583 27.9512 8.84354 27.5437L8.81149 27.5201C9.20174 27.0391 9.72198 26.6943 10.288 26.5521C11.4807 26.252 12.8842 26.4452 13.8361 26.6165C15.0137 26.8283 16.2506 26.7559 17.4131 26.4071L19.029 25.9221C20.1054 25.5989 21.096 25.0548 21.9736 24.3045C21.9802 24.2988 21.9866 24.293 21.993 24.2868L24.7673 21.6181C25.2402 21.2251 25.3432 20.5444 25.18 19.9927H28.7199C29.4257 19.9927 30 19.369 30 18.6023V18.0203C30 17.2537 29.4257 16.6299 28.7199 16.6299ZM15 2.28987C15.7391 2.28987 16.1819 2.4885 16.263 2.59888C16.257 3.05109 16.0464 3.46824 15.7038 3.71833C15.6175 3.71336 15.5324 3.70938 15.4475 3.7059C15.4189 3.70491 15.3902 3.70342 15.3616 3.70267C15.2392 3.69869 15.1183 3.6967 15 3.6967C14.916 3.6967 14.8304 3.69795 14.7441 3.69994C14.7025 3.70068 14.6606 3.70192 14.6187 3.70342C14.5688 3.70516 14.5184 3.7069 14.4681 3.70913C14.4106 3.71187 14.3532 3.7146 14.296 3.71808C13.9533 3.46799 13.743 3.05084 13.737 2.59888C13.8181 2.4885 14.2609 2.28987 15 2.28987ZM18.1471 20.2227C18.1144 20.1421 18.0753 20.0656 18.0311 19.9927H22.2404L20.4204 21.3011L17.826 22.1163L17.7379 22.1185C18.2373 21.6663 18.4195 20.8942 18.1471 20.2227ZM13.3882 19.9927L12.7549 20.1362L12.2653 19.9927H13.3882ZM8.4391 28.8367L7.61993 30.1491C7.56981 30.2296 7.49382 30.2838 7.40593 30.3022C7.31827 30.3204 7.229 30.3005 7.15508 30.2458L1.54816 26.1086C1.39572 25.9962 1.3559 25.77 1.45935 25.6044L2.27875 24.2918C2.32887 24.2115 2.40463 24.1571 2.49252 24.1389C2.51381 24.1344 2.5351 24.1322 2.55615 24.1322C2.62253 24.1322 2.6873 24.1538 2.74338 24.1953L3.04619 24.4186C3.04619 24.4188 3.04642 24.4188 3.04642 24.4188L8.3503 28.3323C8.50273 28.4447 8.54256 28.6711 8.4391 28.8367ZM24.2287 20.8653C24.2182 20.8735 24.2081 20.8825 24.1983 20.8919L21.4211 23.5639C20.638 24.2309 19.7546 24.7152 18.7953 25.003L17.1794 25.4881C16.1389 25.8006 15.0325 25.8654 13.9799 25.676C12.954 25.4915 11.4352 25.285 10.09 25.6233C9.31091 25.8192 8.59955 26.3055 8.08205 26.9817L3.93402 23.9211L5.94727 21.2656C6.70876 20.4847 7.67441 20.0211 8.59909 19.9927H8.61694C8.90373 19.9875 9.20723 20.0793 9.52835 20.177C9.5929 20.1963 9.65721 20.216 9.72176 20.2349L12.6276 21.0863C12.6942 21.1057 12.7641 21.108 12.8316 21.0926L16.6374 20.2306C16.81 20.1919 16.9913 20.2299 17.1348 20.3356C17.2275 20.4039 17.2998 20.4979 17.344 20.607C17.4744 20.9285 17.3515 21.3058 17.0599 21.4689L15.7615 22.2157C15.5818 22.3191 15.4912 22.5429 15.5422 22.7567C15.5935 22.9707 15.7727 23.1164 15.9764 23.1134L17.9025 23.0682C17.9407 23.0672 17.9784 23.061 18.0148 23.0495L20.7287 22.1968C20.7715 22.1834 20.812 22.163 20.8491 22.1364L23.587 20.168C23.8168 20.0139 24.1225 19.8871 24.2853 20.1479C24.4121 20.3507 24.4151 20.7159 24.2287 20.8653Z" fill="white"/>
</svg>
