<svg width="30" height="30" viewBox="0 0 30 30" fill="none" xmlns="http://www.w3.org/2000/svg">
<g clip-path="url(#clip0_33_57)">
<path d="M27.6496 7.44198C27.6798 7.33493 27.7099 7.22782 27.7381 7.12147C28.0631 5.89614 27.8915 4.61755 27.2549 3.52118C26.6183 2.42488 25.5928 1.64211 24.3675 1.31709C23.5268 1.0939 22.6609 1.10474 21.846 1.33918C21.2999 0.760969 20.6101 0.350396 19.8316 0.143909C17.5448 -0.462603 15.1912 0.904291 14.5847 3.19077C13.2899 8.07205 8.07215 13.2897 3.19099 14.5844C0.904396 15.191 -0.462439 17.5447 0.144073 19.8314C0.35097 20.6113 0.762597 21.3023 1.34245 21.8488C1.11393 22.6449 1.08996 23.5102 1.31731 24.3673C1.86869 26.4458 3.75408 27.8975 5.90222 27.8975C6.3122 27.8975 6.72254 27.8438 7.12169 27.7378C7.22757 27.7098 7.3348 27.6801 7.4422 27.6498C8.16162 29.0678 9.62942 29.9999 11.266 29.9999C11.6367 29.9999 12.0077 29.9514 12.3684 29.8556C15.389 29.0543 18.4679 27.4007 21.272 25.0735C21.5211 24.8668 21.5554 24.4974 21.3487 24.2484C21.142 23.9993 20.7725 23.9651 20.5236 24.1717C17.8494 26.3911 14.9254 27.9649 12.0678 28.7229C11.805 28.7927 11.5353 28.8281 11.266 28.8281C9.85495 28.8281 8.61644 27.8741 8.25414 26.5083C8.04057 25.7031 8.15336 24.863 8.57167 24.1427C8.98997 23.4224 9.66375 22.9081 10.4688 22.6945C13.0142 22.0193 15.7001 20.3633 18.0319 18.0315C20.3636 15.6998 22.0196 13.0139 22.6948 10.4686C23.1356 8.80659 24.8465 7.81306 26.5086 8.25392C28.1706 8.69473 29.1641 10.4056 28.7232 12.0677C27.9653 14.9251 26.3915 17.8491 24.1719 20.5234C23.9653 20.7725 23.9996 21.1419 24.2486 21.3486C24.4977 21.5553 24.867 21.5209 25.0737 21.2719C27.401 18.4676 29.0547 15.3887 29.8559 12.3681C30.3838 10.3782 29.4166 8.33777 27.6496 7.44198ZM1.27682 19.531C0.835958 17.8689 1.82949 16.158 3.49146 15.7172C6.03681 15.042 8.72272 13.386 11.0545 11.0543C13.3862 8.72256 15.0423 6.03659 15.7174 3.4913C16.1583 1.82932 17.8693 0.835677 19.5313 1.27666C19.956 1.38928 20.344 1.58586 20.6791 1.85417C19.6294 2.49396 18.8792 3.49569 18.563 4.68774C18.2481 5.87504 17.7338 7.10406 17.0335 8.34433C16.1856 8.52832 15.4065 8.94997 14.7784 9.5781C13.9147 10.4418 13.4391 11.5901 13.439 12.8116C13.4391 12.979 13.3738 13.1365 13.2553 13.2551C13.1368 13.3735 12.9794 13.4388 12.8119 13.4388H12.8117C10.6266 13.4388 8.79544 14.9801 8.34573 17.0325C7.10511 17.7331 5.87568 18.2477 4.68802 18.5628C3.45871 18.8888 2.47086 19.6721 1.85597 20.6808C1.58679 20.3453 1.38973 19.9565 1.27682 19.531ZM15.2165 15.2162C14.5742 15.8586 13.7202 16.2123 12.8119 16.2124H12.8117C12.3317 16.2124 11.88 16.3996 11.54 16.7397C11.1999 17.0798 11.0127 17.5314 11.0126 18.0114C11.0125 19.8867 9.48692 21.4123 7.61177 21.4123C7.1702 21.4123 6.81096 21.0531 6.81096 20.6116C6.81096 20.17 7.1702 19.8107 7.61183 19.8107C8.6039 19.8106 9.41098 19.0035 9.41098 18.0116C9.41109 16.1363 10.9367 14.6107 12.8117 14.6107H12.812C13.2925 14.6107 13.7443 14.4235 14.084 14.0837C14.4239 13.7438 14.611 13.2919 14.611 12.8116C14.611 11.9031 14.9648 11.0491 15.6071 10.4068C16.2494 9.76443 17.1034 9.4107 18.0118 9.41064C19.0038 9.41064 19.8109 8.60361 19.8109 7.61155C19.8109 7.16998 20.1702 6.81068 20.6117 6.81068C21.0534 6.81074 21.4126 7.17004 21.4127 7.61149C21.4126 9.48669 19.8869 11.0123 18.0118 11.0124C17.0197 11.0124 16.2126 11.8195 16.2126 12.8115C16.2126 13.7199 15.8588 14.5739 15.2165 15.2162ZM7.55822 23.5543C7.02923 24.4653 6.85649 25.5155 7.0601 26.5396C6.98018 26.5619 6.90014 26.5842 6.82122 26.6052C6.51992 26.6851 6.21072 26.7257 5.90216 26.7257C4.28483 26.7257 2.8652 25.6323 2.44994 24.0668C1.94463 22.1618 3.08341 20.2008 4.98838 19.6955C5.35413 19.5985 5.72298 19.4837 6.09417 19.3527C5.81011 19.6945 5.63901 20.1334 5.63901 20.6116C5.63901 21.6994 6.52396 22.5843 7.61171 22.5843C7.88166 22.5843 8.14569 22.5594 8.40292 22.5143C8.07309 22.8108 7.78744 23.1596 7.55822 23.5543ZM10.6563 21.4195C11.5933 20.5815 12.1844 19.3644 12.1845 18.0115C12.1845 17.8444 12.2499 17.6871 12.3687 17.5683C12.4874 17.4496 12.6447 17.3842 12.8118 17.3842H12.8119C14.0333 17.3841 15.1815 16.9085 16.0452 16.0449C16.9089 15.1812 17.3845 14.0329 17.3845 12.8115C17.3845 12.4656 17.6659 12.1842 18.0118 12.1842C19.3647 12.1842 20.5818 11.5929 21.4198 10.6559C19.972 15.229 15.2294 19.9716 10.6563 21.4195ZM22.5136 8.40779C22.5593 8.14898 22.5845 7.8832 22.5845 7.61143C22.5844 6.5238 21.6995 5.63879 20.6117 5.63873C20.1337 5.63873 19.6948 5.80977 19.353 6.09378C19.484 5.72264 19.5988 5.35379 19.6957 4.9881C19.9405 4.06523 20.53 3.2929 21.3556 2.81348C22.1812 2.33388 23.1441 2.20474 24.067 2.44972C24.9898 2.69447 25.7621 3.28399 26.2415 4.10965C26.721 4.93524 26.8502 5.89813 26.6054 6.82093C26.5843 6.90021 26.5617 6.98008 26.5395 7.05982C25.0178 6.75871 23.4987 7.31108 22.5136 8.40779Z" fill="white"/>
<path d="M22.8464 22.2602C22.6923 22.2602 22.5411 22.3229 22.4315 22.4319C22.3225 22.5409 22.2604 22.6915 22.2604 22.8462C22.2604 23.0003 22.3225 23.1515 22.4315 23.2604C22.5411 23.3694 22.6923 23.4321 22.8464 23.4321C23.0005 23.4321 23.1511 23.3694 23.2606 23.2604C23.3696 23.1515 23.4323 23.0003 23.4323 22.8462C23.4323 22.6914 23.3696 22.5409 23.2606 22.4319C23.1516 22.3229 23.0005 22.2602 22.8464 22.2602Z" fill="white"/>
</g>
<defs>
<clipPath id="clip0_33_57">
<rect width="30" height="30" fill="white"/>
</clipPath>
</defs>
</svg>
