<svg width="30" height="30" viewBox="0 0 30 30" fill="none" xmlns="http://www.w3.org/2000/svg">
<path d="M6.1938 7.62212H9.05816C8.96827 6.86375 8.6685 6.16823 8.21904 5.59688L6.1938 7.62212ZM20.9719 22.3001H22.3024L19.3676 20.6058C19.5165 20.8389 19.7389 21.1136 20.0223 21.4156C20.2897 21.7005 20.6093 21.9984 20.9719 22.3001ZM24.3806 22.3001H25.9381C25.58 22.059 25.1988 21.8205 24.7992 21.5897L24.7611 21.5668C24.3699 21.3421 23.9822 21.1364 23.602 20.9509L24.3806 22.3001ZM27.2362 23.2675H25.9042L28.8421 24.9637C28.6931 24.7302 28.4703 24.4552 28.1865 24.1528C27.9188 23.8671 27.5992 23.5696 27.2362 23.2675ZM23.8275 23.2675H22.2696C22.6296 23.5098 23.012 23.749 23.4139 23.981C23.8161 24.2133 24.2149 24.4255 24.6057 24.6159L23.8275 23.2675ZM22.7888 21.4689L22.1226 20.3148C21.6792 20.151 21.261 20.0234 20.879 19.9339C20.4752 19.8395 20.1259 19.7838 19.849 19.7717L22.7888 21.4689ZM25.4201 24.0998L26.0859 25.2532C26.5292 25.4166 26.9475 25.5449 27.3287 25.6341C27.7317 25.7282 28.081 25.7834 28.3575 25.796L25.4201 24.0998ZM21.0984 18.9931C22.2639 19.2658 23.7365 19.8673 25.2418 20.7323L25.2806 20.7536C26.7947 21.6282 28.0635 22.6105 28.8897 23.4915C29.8377 24.502 30.2361 25.455 29.8591 26.1075C28.9997 27.5096 27.8791 28.5011 26.3148 29.0519C24.9668 29.5265 23.4718 29.5665 22.0613 29.1094C21.8731 29.3204 21.6301 29.4663 21.3681 29.5364C21.0169 29.6305 20.6272 29.5905 20.2867 29.3939C19.9469 29.1978 19.7176 28.8805 19.6235 28.5281C19.5531 28.2665 19.5576 27.9835 19.6464 27.7149C18.5464 26.7227 17.8337 25.4078 17.5709 24.0031C17.2852 22.476 17.5518 20.7727 18.3616 19.4391C18.7482 18.8053 19.7645 18.6815 21.0984 18.9931ZM28.1888 26.7345C27.8612 26.7193 27.499 26.6659 27.1093 26.5749C25.9331 26.2999 24.4465 25.6912 22.9301 24.8159C21.4153 23.941 20.1457 22.9583 19.3192 22.0769C19.0453 21.7851 18.8176 21.4979 18.6408 21.2217C18.394 22.0814 18.3597 22.9735 18.5193 23.8256C18.7631 25.1301 19.4613 26.3441 20.5438 27.2121C20.7331 27.3641 20.7769 27.6304 20.6569 27.8334L20.5906 27.9469C20.5369 28.0513 20.5278 28.1701 20.5567 28.279C20.5872 28.3929 20.6611 28.4958 20.7704 28.559C20.8782 28.6215 21.0047 28.6336 21.1189 28.6032C21.2336 28.5727 21.3364 28.4992 21.3985 28.3914L21.4568 28.2893C21.5798 28.0768 21.8411 27.9934 22.0617 28.0867C23.351 28.5849 24.7455 28.5803 25.9933 28.1408C26.8119 27.8524 27.5672 27.3774 28.1888 26.7345ZM14.1515 3.15265L17.5419 1.07066C17.7693 0.932012 18.0664 1.00362 18.2051 1.23102C18.3437 1.45841 18.2721 1.75552 18.0447 1.89416L14.8177 3.87598L14.155 7.62212H16.6106C16.8776 7.62212 17.0944 7.83885 17.0944 8.10586C17.0944 14.9099 17.0944 21.7135 17.0944 28.5175C17.0944 28.8454 16.9599 29.1441 16.7432 29.3615L16.7401 29.3646C16.523 29.5806 16.2248 29.7146 15.8972 29.7146H5.73977C5.41181 29.7146 5.11319 29.5802 4.89569 29.3635L4.89265 29.3604C4.67668 29.1433 4.5426 28.845 4.5426 28.5175C4.5426 23.3807 4.5426 18.2442 4.5426 13.1074C3.29973 12.989 2.18941 12.4176 1.37885 11.5621C0.524498 10.6606 0 9.4432 0 8.10586C0 6.71825 0.562969 5.4609 1.47217 4.55169C2.38138 3.64249 3.63835 3.07952 5.02596 3.07952C6.40786 3.07952 7.6614 3.63906 8.57023 4.54331C9.37735 5.34663 9.91328 6.42305 10.0275 7.62212H13.1734L13.9032 3.49584C13.9295 3.34348 14.0251 3.22045 14.1515 3.15265ZM11.2944 23.7924C11.2487 24.0552 10.9981 24.2312 10.7353 24.1855C10.4724 24.1398 10.2965 23.8892 10.3422 23.6264L11.9492 14.5427C11.7294 14.6116 11.5081 14.6844 11.2853 14.7579C9.51486 15.3422 7.64236 15.96 5.51008 15.1708V26.6069H16.1269V14.7057C15.1095 14.0189 14.0647 14.0178 12.981 14.2581L11.2944 23.7924ZM12.1381 13.4735L13.002 8.5896H5.51008V14.1302C7.47286 14.9975 9.27984 14.4014 10.9828 13.8392C11.3721 13.7108 11.7568 13.584 12.1381 13.4735ZM13.9836 8.5896L13.1635 13.227C14.1519 13.0488 15.1293 13.0774 16.1269 13.5832V8.5896H13.9836ZM0.996051 7.62212H3.85813L1.83479 5.59841C1.38571 6.16937 1.08632 6.86375 0.996051 7.62212ZM4.54222 6.93803V4.07557C3.78385 4.16584 3.08947 4.46523 2.5185 4.91431L4.54222 6.93803ZM5.5097 4.07557V6.93803L7.53456 4.91317C6.96398 4.46447 6.26922 4.16546 5.5097 4.07557ZM3.85813 8.5896H0.996051C1.08594 9.34874 1.38495 10.0435 1.83365 10.6141L3.85813 8.5896ZM2.51774 11.2982C3.08909 11.7476 3.78423 12.0474 4.5426 12.1373V9.27332L2.51774 11.2982ZM16.1269 27.5744H5.51008V28.5175C5.51008 28.5815 5.5356 28.639 5.57598 28.6794C5.61826 28.7216 5.67578 28.7472 5.73977 28.7472H15.8972C15.9612 28.7472 16.0187 28.7216 16.0591 28.6813C16.1014 28.639 16.1269 28.5815 16.1269 28.5175V27.5744Z" fill="white"/>
</svg>
