<svg width="30" height="30" viewBox="0 0 30 30" fill="none" xmlns="http://www.w3.org/2000/svg">
<path d="M6.56265 15.4776C6.60297 15.741 6.42278 15.9867 6.15942 16.027C5.89607 16.0673 5.65036 15.8871 5.61004 15.6238L5.28872 13.5875C5.2484 13.3241 5.42859 13.0784 5.69194 13.0381L5.76503 13.0318H6.09641L4.01603 5.12858C3.94798 4.87152 4.10297 4.6069 4.36003 4.53887L5.97167 4.11674C6.22873 4.04995 6.49209 4.20495 6.55887 4.46074L6.80836 5.41083L6.39507 1.7831C6.36609 1.51848 6.55762 1.27906 6.82223 1.2501L8.19572 1.09384C8.46033 1.06486 8.69849 1.25513 8.72872 1.51849L9.10549 4.79591L9.28568 2.39546C9.30458 2.12958 9.5377 1.93049 9.80358 1.94939L11.0334 2.04264C11.2993 2.06154 11.4984 2.29465 11.4795 2.56054L11.3094 4.82996H11.9697C12.2368 4.82996 12.4535 5.04669 12.4535 5.31383V6.97083L12.5417 6.96201L12.7207 2.33007C12.7295 2.0642 12.9538 1.85627 13.2197 1.86511L15.043 1.93567C15.3089 1.94449 15.5168 2.16879 15.508 2.43467L15.3706 5.96402H15.76L15.6592 2.86925C15.6503 2.60337 15.8595 2.38035 16.1254 2.37151L17.543 2.32489C17.8088 2.31607 18.0319 2.52524 18.0407 2.79111L18.1302 5.48266L18.3721 5.50534L18.0054 0.623732C17.9865 0.357854 18.1856 0.12599 18.4515 0.105829L19.8439 0.00124175C20.1098 -0.0176595 20.3416 0.181432 20.3618 0.447306L20.6377 4.12408L20.7827 2.3083C20.8028 2.04747 21.0296 1.84837 21.293 1.8635L22.7232 1.94792C22.989 1.96431 23.1919 2.19364 23.1755 2.4595L23.0016 5.11576L23.2322 4.23495C23.299 3.9779 23.5624 3.82292 23.8207 3.8897L25.4474 4.3156C25.7045 4.38238 25.8595 4.64573 25.7927 4.90405L23.6632 13.0279H23.7224C23.9895 13.0279 24.2063 13.2447 24.2063 13.5118C24.2063 13.5534 24.2012 13.5924 24.1911 13.6315L21.6735 29.5892C21.6369 29.8274 21.4316 29.9975 21.1972 29.9975L19.8942 30C19.6271 30 19.4104 29.7833 19.4104 29.5161C19.4104 29.249 19.6271 29.0323 19.8942 29.0323H20.7851L21.4265 24.9671H18.5888C18.1604 25.3514 17.6097 25.669 16.9797 25.892C16.3131 26.1289 15.5495 26.2637 14.743 26.2637C13.9366 26.2637 13.1742 26.1289 12.5064 25.892C11.8763 25.669 11.3257 25.3514 10.896 24.9671H8.05827L8.69966 29.0323H15.7058C15.9729 29.0323 16.1897 29.249 16.1897 29.5161C16.1897 29.7833 15.9729 30 15.7058 30H8.28901C8.03322 30 7.82279 29.8009 7.8064 29.5476L5.93643 17.6915C5.89611 17.4282 6.0763 17.1825 6.33966 17.1421C6.60302 17.1018 6.84872 17.282 6.88905 17.5454L7.41576 20.8808H10.8974C11.327 20.4965 11.8777 20.179 12.5078 19.9559C13.1743 19.719 13.9367 19.5842 14.7444 19.5842C15.5508 19.5842 16.3132 19.7191 16.981 19.9559C17.6111 20.179 18.1617 20.4965 18.5914 20.8808H22.073L23.1592 13.997H21.1242C20.6479 14.6673 19.8137 15.2369 18.7477 15.6414C17.63 16.066 16.2414 16.3168 14.7432 16.3168C13.2449 16.3168 11.8576 16.0648 10.7399 15.6414C9.67392 15.2369 8.83976 14.6674 8.36343 13.997H6.32966L6.56278 15.475L6.56265 15.4776ZM21.5804 24.0021L21.9193 21.8499H18.4C18.2765 21.8486 18.1518 21.8008 18.0573 21.7062C17.712 21.361 17.2306 21.0712 16.6586 20.8683C16.0928 20.6679 15.4401 20.5533 14.7433 20.5533C14.0477 20.5533 13.395 20.6679 12.8292 20.8683C12.2685 21.0674 11.7947 21.3484 11.4519 21.6848C11.3637 21.7856 11.2327 21.8499 11.0878 21.8499H7.56842L7.90739 24.0021H11.0878C11.2113 24.0034 11.3361 24.0512 11.4306 24.1457C11.7746 24.491 12.2572 24.7808 12.8305 24.9837C13.3963 25.1841 14.049 25.2987 14.7446 25.2987C15.4402 25.2987 16.0929 25.1841 16.6599 24.9837C17.2206 24.7846 17.6944 24.5036 18.0372 24.1672C18.1254 24.0664 18.2564 24.0021 18.4013 24.0021H21.5818H21.5804ZM15.333 6.9331L15.0066 15.3492C15.1742 15.3454 15.3393 15.3391 15.5031 15.3291L15.9227 10.9704L15.9214 10.9565L15.7917 6.93553H15.333L15.333 6.9331ZM11.2365 5.8003L11.1231 7.30862C11.1962 7.17883 11.3272 7.08432 11.486 7.06542V5.80029L11.2365 5.8003ZM16.7065 5.40843C16.7783 5.37692 16.8602 5.36306 16.9434 5.37062L17.1627 5.39204L17.0934 3.30663L16.6397 3.32175L16.7078 5.40845L16.7065 5.40843ZM21.1091 10.4033L21.2212 11.9065L21.7114 10.0353L22.1776 2.88565L21.7076 2.85793L21.1091 10.397L21.1091 10.4033ZM8.52103 11.9179L8.55884 12.0603L8.72013 9.91436L7.82423 2.10824L7.40964 2.15486L8.51977 11.9003L8.52103 11.9167L8.52103 11.9179ZM13.4733 7.77465L14.0869 14.1482L14.5229 2.88046L13.6635 2.8477L13.4745 7.74576L13.472 7.77348L13.4733 7.77465ZM16.4798 15.2243C16.7243 15.1878 16.9637 15.1449 17.1943 15.0933L18.0259 6.44167L17.3304 6.37488L16.4798 15.2243ZM18.1898 14.8161C18.2629 14.7909 18.3359 14.7644 18.4065 14.7379C18.6333 14.6523 18.8463 14.559 19.0441 14.4595L18.685 9.67495L18.1911 14.8172L18.1898 14.8161ZM19.9665 13.8483C20.1265 13.7047 20.2601 13.5547 20.3647 13.3997L19.4347 1.00298L19.0063 1.03448L19.9678 13.8483L19.9665 13.8483ZM21.9234 13.0305H22.6643L24.7359 5.12988L24.0416 4.94843L21.9222 13.032L21.9234 13.0305ZM11.084 7.81246L10.5787 14.525C10.7363 14.5994 10.9038 14.6712 11.079 14.7367C11.2983 14.8199 11.5301 14.8955 11.772 14.9635L11.084 7.81128V7.81246ZM12.7625 15.185C12.9137 15.2115 13.0674 15.2342 13.2249 15.2543L12.5205 7.93208L12.0694 7.97492L12.7625 15.1839V15.185ZM9.40181 13.7385C9.47742 13.8141 9.56058 13.8897 9.6513 13.9615L10.4779 2.96988L10.212 2.94972L9.40056 13.7371L9.40181 13.7385ZM7.09336 13.0303L7.81665 13.029L5.74884 5.17129L5.07217 5.34897L7.09458 13.0302L7.09336 13.0303ZM17.8243 29.0319C18.0915 29.0319 18.3082 29.2486 18.3082 29.5158C18.3082 29.7829 18.0915 29.9996 17.8243 29.9996H17.7752C17.508 29.9996 17.2913 29.7829 17.2913 29.5158C17.2913 29.2486 17.508 29.0319 17.7752 29.0319H17.8243Z" fill="white"/>
</svg>
