<svg width="30" height="30" viewBox="0 0 30 30" fill="none" xmlns="http://www.w3.org/2000/svg">
<path d="M22.3834 28.9358H7.87637C7.39124 28.9358 7 28.5446 7 28.0438V6.69797C7 6.51017 7.0626 6.30673 7.18779 6.16588L7.97027 5.14867C8.14241 4.92958 8.3928 4.80438 8.67449 4.80438H21.6322C21.8983 4.80438 22.1643 4.92958 22.3365 5.14867L23.1189 6.16588C23.2285 6.32238 23.3067 6.51017 23.3067 6.69797V28.0438C23.2754 28.529 22.8842 28.9358 22.3834 28.9358ZM8.65884 5.43036C8.58059 5.43036 8.50235 5.46166 8.4554 5.52426L7.67293 6.54147C7.64163 6.58842 7.62598 6.63537 7.62598 6.69797V28.0438C7.62598 28.1847 7.73552 28.3099 7.87637 28.3099H22.3834C22.5243 28.3099 22.6495 28.2003 22.6495 28.0438V6.69797C22.6495 6.63537 22.6338 6.58842 22.6025 6.54147L21.82 5.52426C21.7731 5.46166 21.6948 5.43036 21.6166 5.43036H8.65884Z" fill="white"/>
<path d="M21.3505 30H8.87791C8.50232 30 8.18933 29.7026 8.18933 29.3584V28.7793H8.81531V29.3584C8.81531 29.3584 8.83096 29.374 8.87791 29.374H21.3505C21.3818 29.374 21.4131 29.3584 21.4131 29.3427V28.7637H22.0391V29.3427C22.0391 29.7026 21.7261 30 21.3505 30Z" fill="white"/>
<path d="M20.6306 5.43039H9.64466C8.86218 5.43039 8.23621 4.78876 8.23621 4.00629V3.83414C8.23621 3.5368 8.47095 3.30206 8.76829 3.30206H21.5382C21.8356 3.30206 22.0703 3.5368 22.0703 3.83414V4.00629C22.0547 4.80441 21.413 5.43039 20.6306 5.43039ZM8.84653 3.94369V4.00629C8.84653 4.44447 9.20647 4.80441 9.62901 4.80441H20.6149C21.0531 4.80441 21.3974 4.44447 21.3974 4.00629V3.94369H8.84653Z" fill="white"/>
<path d="M15.1221 7.01099H7.31299C7.14085 7.01099 7 6.87014 7 6.698C7 6.52585 7.14085 6.38501 7.31299 6.38501H15.1221C15.2942 6.38501 15.4351 6.52585 15.4351 6.698C15.4351 6.87014 15.2942 7.01099 15.1221 7.01099Z" fill="white"/>
<path d="M18.5493 7.01099H16.6244C16.4522 7.01099 16.3114 6.87014 16.3114 6.698C16.3114 6.52585 16.4522 6.38501 16.6244 6.38501H18.5336C18.7058 6.38501 18.8466 6.52585 18.8466 6.698C18.8466 6.87014 18.7214 7.01099 18.5493 7.01099Z" fill="white"/>
<path d="M20.881 26.7762C20.7088 26.7762 20.568 26.6354 20.568 26.4632V21.1268C20.568 20.9546 20.7088 20.8138 20.881 20.8138C21.0531 20.8138 21.194 20.9546 21.194 21.1268V26.4632C21.194 26.6354 21.0531 26.7762 20.881 26.7762Z" fill="white"/>
<path d="M20.881 20.047C20.7088 20.047 20.568 19.9061 20.568 19.734V18.1064C20.568 17.9343 20.7088 17.7935 20.881 17.7935C21.0531 17.7935 21.194 17.9343 21.194 18.1064V19.734C21.194 19.9061 21.0531 20.047 20.881 20.047Z" fill="white"/>
<path d="M17.7042 3.88106C17.6572 3.88106 17.6103 3.88106 17.579 3.86541C17.3755 3.78717 17.266 3.56808 17.3442 3.36463L18.3301 0.610329C18.4553 0.250391 18.8153 0 19.2065 0H21.2566C21.4757 0 21.6478 0.172144 21.6478 0.391236C21.6478 0.610329 21.4757 0.782473 21.2566 0.782473H19.2065C19.1439 0.782473 19.097 0.829421 19.0657 0.876369L18.0797 3.63067C18.0172 3.78717 17.8607 3.88106 17.7042 3.88106Z" fill="white"/>
</svg>
