<svg width="30" height="30" viewBox="0 0 30 30" fill="none" xmlns="http://www.w3.org/2000/svg">
<path d="M9.26836 16.6594C9.22342 16.6052 9.16823 16.5604 9.10594 16.5276C9.04365 16.4948 8.9755 16.4746 8.90539 16.4682C8.83528 16.4618 8.7646 16.4692 8.69738 16.4902C8.63017 16.5111 8.56776 16.5452 8.51372 16.5903C7.58973 17.4245 10.5009 19.0629 11.2159 19.1125C11.3429 19.1101 11.4649 19.0629 11.5604 18.9792C11.6559 18.8954 11.7187 18.7806 11.7376 18.655C11.7565 18.5294 11.7303 18.4012 11.6637 18.293C11.5971 18.1849 11.4943 18.1038 11.3736 18.0642C10.5503 17.8104 9.81877 17.3222 9.26836 16.6594Z" fill="white"/>
<path d="M15.9311 9.24878C15.1256 9.24972 14.3534 9.57011 13.7838 10.1397C13.2143 10.7092 12.8939 11.4815 12.8929 12.287C12.8929 12.4291 12.9494 12.5654 13.0499 12.6659C13.1504 12.7664 13.2867 12.8228 13.4288 12.8228C13.571 12.8228 13.7073 12.7664 13.8078 12.6659C13.9083 12.5654 13.9647 12.4291 13.9647 12.287C13.9653 11.7656 14.1726 11.2658 14.5413 10.8971C14.9099 10.5285 15.4098 10.3211 15.9311 10.3206C16.0719 10.3185 16.2062 10.2612 16.3051 10.1609C16.4039 10.0606 16.4593 9.92547 16.4593 9.78467C16.4593 9.64387 16.4039 9.50873 16.3051 9.40845C16.2062 9.30818 16.0719 9.25082 15.9311 9.24878Z" fill="white"/>
<path d="M11.6587 6.76771C11.6591 6.37908 11.8137 6.00649 12.0885 5.73169C12.3633 5.45689 12.7359 5.30231 13.1245 5.30187C13.2667 5.30187 13.403 5.24542 13.5035 5.14492C13.604 5.04442 13.6604 4.90811 13.6604 4.76599C13.6604 4.62386 13.604 4.48756 13.5035 4.38706C13.403 4.28656 13.2667 4.2301 13.1245 4.2301C12.4517 4.23082 11.8067 4.4984 11.331 4.97414C10.8552 5.44988 10.5876 6.09492 10.5869 6.76771C10.5869 6.90984 10.6434 7.04614 10.7439 7.14664C10.8444 7.24714 10.9807 7.3036 11.1228 7.3036C11.2649 7.3036 11.4012 7.24714 11.5017 7.14664C11.6022 7.04614 11.6587 6.90984 11.6587 6.76771Z" fill="white"/>
<path d="M24.2459 2.08473C24.2616 -0.0258155 21.0979 -0.876975 20.2414 1.1708L17.9002 6.9361C17.8654 6.92354 17.8296 6.9137 17.7946 6.90181C17.8108 6.27785 17.7023 5.65692 17.4755 5.07541C17.2487 4.4939 16.9081 3.9635 16.4737 3.51529C16.0393 3.06708 15.5198 2.71008 14.9457 2.46519C14.3716 2.22031 13.7543 2.09247 13.1302 2.08917C12.4031 1.9981 9.463 2.80066 10.1634 3.83521C10.2513 3.94693 10.3799 4.01918 10.521 4.03607C10.6622 4.05296 10.8042 4.0131 10.916 3.92526C13.1168 2.10483 16.7072 3.7601 16.7197 6.6343C15.875 6.51124 15.0135 6.5813 14.1998 6.83921C13.3861 7.09713 12.6415 7.53618 12.022 8.12336C11.2814 7.82638 10.4769 7.72471 9.68572 7.8281C9.44057 7.0336 9.47572 6.179 9.78531 5.40732C9.81149 5.342 9.82454 5.27216 9.82372 5.2018C9.82289 5.13143 9.80821 5.06192 9.78051 4.99723C9.7528 4.93254 9.71262 4.87395 9.66227 4.8248C9.61191 4.77565 9.55235 4.7369 9.48701 4.71077C8.28742 4.3258 8.35549 7.4219 8.64603 8.08198C8.02432 8.31275 7.45913 8.67375 6.98835 9.1408C6.51756 9.60784 6.15205 10.1701 5.91633 10.79C4.08185 11.4794 3.32665 12.6951 4.71793 13.8492L5.32735 15.9576C5.69447 17.2367 6.39116 18.3968 7.34767 19.322C8.30418 20.2471 9.48695 20.9047 10.7775 21.229V21.7885C10.7777 22.1544 10.8912 22.5114 11.1023 22.8103C11.3134 23.1092 11.6118 23.3355 11.9566 23.458V25.4349C6.95409 26.4751 8.84921 30.0949 13.6234 29.9981C16.2547 29.9982 18.2389 28.9837 18.2389 27.6383C18.2389 26.6037 17.096 25.7637 15.2897 25.4334V23.4601C15.634 23.3362 15.9319 23.1094 16.1429 22.8103C16.3538 22.5112 16.4676 22.1545 16.4687 21.7885V21.2286C18.146 20.8031 19.6288 19.8201 20.6739 18.4411C20.7566 18.3275 20.7913 18.1861 20.7708 18.0472C20.7502 17.9083 20.676 17.783 20.564 17.6982C20.4521 17.6135 20.3113 17.5761 20.172 17.594C20.0328 17.612 19.9061 17.6839 19.8193 17.7942C19.2059 18.605 18.4127 19.2624 17.5021 19.7147C16.5915 20.1669 15.5884 20.4016 14.5717 20.4004C13.9659 20.3629 12.3809 20.4549 11.807 20.3493C10.5418 20.1794 9.35324 19.6457 8.38569 18.8131C7.41814 17.9805 6.71327 16.8847 6.35674 15.659L6.03525 14.5471C8.30045 15.383 11.3458 15.6172 14.0015 15.6007C16.8534 15.539 19.0563 15.3085 21.2108 14.5502C21.1233 14.8397 20.8693 15.7706 20.7647 16.039C20.7161 16.1711 20.7215 16.317 20.7796 16.4452C20.8377 16.5734 20.9439 16.6735 21.0753 16.7241C21.2066 16.7746 21.3526 16.7714 21.4816 16.7152C21.6107 16.659 21.7124 16.5542 21.7648 16.4236C21.8877 16.1236 22.4183 14.2126 22.525 13.8654C23.9357 12.6754 23.1673 11.5451 21.4588 10.8401C21.2722 10.1233 20.9441 9.45101 20.4938 8.86291L23.9861 3.0317C24.1558 2.74496 24.2456 2.41794 24.2459 2.08473ZM5.49039 13.0974C4.8677 12.635 4.97406 12.5497 5.63087 12.1031C5.58824 12.4707 5.60077 12.8426 5.66806 13.2064C5.60674 13.1736 5.54742 13.1372 5.49039 13.0974ZM17.1671 27.6383C17.1671 28.1634 15.7866 28.9264 13.6234 28.9264C11.4929 28.9264 10.0794 28.1511 10.0794 27.6383C10.0794 27.3243 10.6802 26.8013 11.9566 26.5267C11.9661 26.8397 11.8738 27.3589 12.2219 27.5273C12.6416 27.8094 13.1365 27.9586 13.6422 27.9553C14.1479 27.9521 14.6408 27.7965 15.0568 27.509C15.3739 27.3311 15.2762 26.8217 15.2897 26.5267C16.517 26.7923 17.1671 27.3104 17.1671 27.6383ZM13.0284 26.7531V23.5728H14.2179V26.7554C14.0308 26.8393 13.828 26.8825 13.6229 26.8821C13.4178 26.8817 13.2152 26.8377 13.0284 26.7531ZM11.8493 21.4292C12.3958 21.5 13.9936 21.4644 14.5717 21.4722C14.8473 21.4719 15.1228 21.4576 15.397 21.4292V21.7885C15.3983 21.9662 15.333 22.1379 15.2139 22.2698C15.0949 22.4017 14.9307 22.4842 14.7538 22.501H12.5671C12.378 22.4999 12.1968 22.4247 12.0626 22.2914C11.9284 22.1582 11.8518 21.9776 11.8493 21.7885V21.4292ZM21.6489 12.2875C21.6489 12.2295 21.6418 12.1723 21.64 12.1145C22.0405 12.3515 22.1725 12.5492 22.1725 12.6437C22.199 12.7258 21.973 12.9705 21.7122 13.1356C21.4235 13.4053 21.7171 12.4964 21.6489 12.2875ZM11.1317 9.19746C10.9493 9.48251 10.7933 9.78369 10.6659 10.0972C10.6164 10.0438 10.5564 10.0011 10.4897 9.9718C10.423 9.94252 10.351 9.92729 10.2781 9.92705C9.6053 9.92776 8.96026 10.1953 8.48452 10.6711C8.00878 11.1468 7.7412 11.7919 7.74048 12.4647C7.74048 12.6068 7.79694 12.7431 7.89744 12.8436C7.99794 12.9441 8.13424 13.0005 8.27637 13.0005C8.41849 13.0005 8.5548 12.9441 8.6553 12.8436C8.7558 12.7431 8.81225 12.6068 8.81225 12.4647C8.81269 12.076 8.96727 11.7034 9.24207 11.4286C9.51687 11.1538 9.88946 10.9993 10.2781 10.9988C10.3138 10.9954 10.349 10.9883 10.3832 10.9776C10.0965 12.1128 10.1844 13.3103 10.634 14.3914C9.36907 14.2962 8.11782 14.0674 6.90113 13.7087C6.727 13.2295 6.65613 12.7189 6.69317 12.2103C6.7302 11.7018 6.87431 11.2069 7.11604 10.7579C7.35777 10.309 7.69166 9.91622 8.09582 9.60537C8.49998 9.29452 8.96528 9.0726 9.46121 8.95418C9.78802 8.85151 11.5756 8.73697 11.1317 9.19746ZM20.3431 13.7118C18.1094 14.4168 14.6672 14.6504 11.8548 14.4749C11.3926 13.6229 11.2103 12.6472 11.3336 11.6858C11.457 10.7245 11.8799 9.82636 12.5423 9.11878C15.9306 5.53139 21.8401 9.02251 20.3431 13.7118ZM23.065 2.48374L19.742 8.03228C19.4719 7.79384 19.1798 7.58165 18.8695 7.39859L21.2344 1.57447C21.2777 1.47059 21.3421 1.37687 21.4236 1.29929C21.5051 1.22171 21.6019 1.16197 21.7078 1.12389C22.481 0.793747 23.5265 1.70444 23.065 2.48374Z" fill="white"/>
</svg>
